<svg width="66" height="66" viewBox="0 0 66 66" fill="none" xmlns="http://www.w3.org/2000/svg">
<circle cx="33" cy="33" r="31.5" stroke="#15379A" stroke-width="3"/>
<circle cx="33" cy="33" r="31.5" stroke="#15379A" stroke-width="3"/>
<circle cx="33" cy="33" r="31.5" stroke="#1E4FC6" stroke-width="3"/>
<g clip-path="url(#clip0_138_256)">
<path d="M20.4473 47C20.0784 47 19.7096 46.8598 19.4294 46.5774C18.8668 46.0149 18.8668 45.1028 19.4294 44.5402L44.5477 19.4219C45.1103 18.8594 46.0223 18.8594 46.5849 19.4219C47.1475 19.9845 47.1475 20.8965 46.5849 21.4594L21.4669 46.5774C21.1846 46.858 20.8157 47 20.4473 47V47Z" fill="white"/>
<path d="M45.5674 47C45.1985 47 44.8301 46.8598 44.5495 46.5774L19.4294 21.4594C18.8668 20.8965 18.8668 19.9845 19.4294 19.4219C19.9919 18.8594 20.904 18.8594 21.4669 19.4219L46.5849 44.5402C47.1475 45.1028 47.1475 46.0149 46.5849 46.5774C46.3026 46.858 45.9341 47 45.5674 47Z" fill="white"/>
</g>
<defs>
<clipPath id="clip0_138_256">
<rect width="28" height="28" fill="white" transform="translate(19 19)"/>
</clipPath>
</defs>
</svg>
