<svg width="1249" height="94" viewBox="0 0 1249 94" fill="none" xmlns="http://www.w3.org/2000/svg">
<path d="M74.944 1.75999H75.444V1.25999H74.944V1.75999ZM74.944 92V92.5H75.444V92H74.944ZM58.432 92H57.932V92.5H58.432V92ZM58.432 16.096H58.932V15.596H58.432V16.096ZM16.832 16.096V15.596H16.332V16.096H16.832ZM16.832 92V92.5H17.332V92H16.832ZM0.320001 92H-0.179999V92.5H0.320001V92ZM0.320001 1.75999V1.25999H-0.179999V1.75999H0.320001ZM74.444 1.75999V92H75.444V1.75999H74.444ZM74.944 91.5H58.432V92.5H74.944V91.5ZM58.932 92V16.096H57.932V92H58.932ZM58.432 15.596H16.832V16.596H58.432V15.596ZM16.332 16.096V92H17.332V16.096H16.332ZM16.832 91.5H0.320001V92.5H16.832V91.5ZM0.820001 92V1.75999H-0.179999V92H0.820001ZM0.320001 2.25999H74.944V1.25999H0.320001V2.25999ZM134.373 2.52799L134.304 3.02336L134.317 3.02479L134.373 2.52799ZM145.125 5.216L144.939 5.68034L144.949 5.68416L145.125 5.216ZM153.445 10.592L153.078 10.9317L153.085 10.9388L153.091 10.9455L153.445 10.592ZM157.797 48.224L157.341 48.0192L157.337 48.027L157.797 48.224ZM149.477 57.824L149.728 58.2563L149.731 58.2545L149.477 57.824ZM137.445 62.304L137.532 62.7965L137.541 62.7947L137.445 62.304ZM108.517 63.456V62.956H108.017V63.456H108.517ZM108.517 92V92.5H109.017V92H108.517ZM92.005 92H91.505V92.5H92.005V92ZM92.005 1.75999V1.25999H91.505V1.75999H92.005ZM138.981 45.92L138.716 45.496L138.981 45.92ZM138.981 19.296L138.716 19.7201L138.724 19.7247L138.981 19.296ZM108.517 16.096V15.596H108.017V16.096H108.517ZM108.517 49.12H108.017V49.62H108.517V49.12ZM121.573 2.25999C126.421 2.25999 130.663 2.5152 134.304 3.02319L134.442 2.03279C130.744 1.51679 126.453 1.25999 121.573 1.25999V2.25999ZM134.317 3.02479C138.028 3.44657 141.569 4.33194 144.939 5.68023L145.311 4.75176C141.855 3.36939 138.227 2.46276 134.429 2.03119L134.317 3.02479ZM144.949 5.68416C148.302 6.94122 151.006 8.69337 153.078 10.9317L153.812 10.2523C151.618 7.88262 148.775 6.05077 145.301 4.74783L144.949 5.68416ZM153.091 10.9455C155.246 13.0998 156.96 15.9739 158.221 19.5887L159.165 19.2593C157.866 15.5355 156.082 12.5215 153.799 10.2384L153.091 10.9455ZM158.221 19.5887C159.478 23.192 160.113 27.4857 160.113 32.48H161.113C161.113 27.4049 160.468 22.9946 159.165 19.2593L158.221 19.5887ZM160.113 32.48C160.113 38.7491 159.181 43.9217 157.341 48.0192L158.253 48.4288C160.168 44.1636 161.113 38.8402 161.113 32.48H160.113ZM157.337 48.027C155.585 52.1152 152.882 55.2314 149.223 57.3935L149.731 58.2545C153.582 55.9793 156.425 52.6955 158.257 48.421L157.337 48.027ZM149.226 57.3917C145.607 59.4959 141.649 60.9702 137.349 61.8133L137.541 62.7947C141.945 61.9311 146.009 60.4188 149.728 58.2563L149.226 57.3917ZM137.358 61.8116C133.044 62.573 127.784 62.956 121.573 62.956V63.956C127.821 63.956 133.142 63.571 137.532 62.7964L137.358 61.8116ZM121.573 62.956H108.517V63.956H121.573V62.956ZM108.017 63.456V92H109.017V63.456H108.017ZM108.517 91.5H92.005V92.5H108.517V91.5ZM92.505 92V1.75999H91.505V92H92.505ZM92.005 2.25999H121.573V1.25999H92.005V2.25999ZM122.469 49.62C130.087 49.62 135.71 48.5543 139.246 46.344L138.716 45.496C135.426 47.5524 130.04 48.62 122.469 48.62V49.62ZM139.246 46.344C142.885 44.0694 144.601 39.3572 144.601 32.48H143.601C143.601 39.2561 141.903 43.5039 138.716 45.496L139.246 46.344ZM144.601 32.48C144.601 25.6877 142.885 21.0552 139.238 18.8673L138.724 19.7247C141.904 21.6328 143.601 25.7896 143.601 32.48H144.601ZM139.246 18.872C135.71 16.6617 130.087 15.596 122.469 15.596V16.596C130.04 16.596 135.426 17.6636 138.716 19.72L139.246 18.872ZM122.469 15.596H108.517V16.596H122.469V15.596ZM108.017 16.096V49.12H109.017V16.096H108.017ZM108.517 49.62H122.469V48.62H108.517V49.62ZM184.192 80.224L183.823 80.5611L183.826 80.5648L184.192 80.224ZM184.192 13.536L183.826 13.1952L183.824 13.1972L184.192 13.536ZM249.088 13.664L248.719 14.001L248.72 14.0028L249.088 13.664ZM249.088 80.224L249.456 80.5628L249.457 80.5611L249.088 80.224ZM195.84 23.52L196.224 23.8407L196.226 23.8379L195.84 23.52ZM195.84 70.24L195.454 70.5579L195.84 70.24ZM237.44 70.24L237.054 69.9221L237.051 69.9256L237.44 70.24ZM237.44 23.52L237.054 23.8379L237.056 23.8407L237.44 23.52ZM184.561 79.8869C176.635 71.2021 172.66 60.1918 172.66 46.816H171.66C171.66 60.4056 175.706 71.6672 183.823 80.5611L184.561 79.8869ZM172.66 46.816C172.66 33.4401 176.635 22.4736 184.56 13.8748L183.824 13.1972C175.706 22.0064 171.66 33.2265 171.66 46.816H172.66ZM184.558 13.8768C192.556 5.28903 203.253 0.979996 216.704 0.979996V-0.0200043C203.019 -0.0200043 192.041 4.37496 183.826 13.1952L184.558 13.8768ZM216.704 0.979996C230.153 0.979996 240.806 5.33056 248.719 14.001L249.457 13.3269C241.328 4.41876 230.391 -0.0200043 216.704 -0.0200043V0.979996ZM248.72 14.0028C256.645 22.6022 260.62 33.5264 260.62 46.816H261.62C261.62 33.3109 257.573 22.1338 249.456 13.3252L248.72 14.0028ZM260.62 46.816C260.62 60.1918 256.645 71.2021 248.719 79.8869L249.457 80.5611C257.574 71.6672 261.62 60.4056 261.62 46.816H260.62ZM248.72 79.8852C240.808 88.471 230.155 92.78 216.704 92.78V93.78C230.389 93.78 241.325 89.385 249.456 80.5628L248.72 79.8852ZM216.704 92.78C203.253 92.78 192.556 88.471 184.558 79.8832L183.826 80.5648C192.041 89.385 203.019 93.78 216.704 93.78V92.78ZM195.456 23.1993C190.582 29.0318 188.172 36.923 188.172 46.816H189.172C189.172 37.0823 191.541 29.4429 196.224 23.8407L195.456 23.1993ZM188.172 46.816C188.172 56.7094 190.582 64.6414 195.454 70.5579L196.226 69.9221C191.541 64.2332 189.172 56.5492 189.172 46.816H188.172ZM195.454 70.5579C200.348 76.5006 207.459 79.444 216.704 79.444V78.444C207.687 78.444 200.889 75.5847 196.226 69.9221L195.454 70.5579ZM216.704 79.444C225.948 79.444 233.019 76.5006 237.829 70.5544L237.051 69.9256C232.474 75.5847 225.721 78.444 216.704 78.444V79.444ZM237.826 70.5579C242.698 64.6414 245.108 56.7094 245.108 46.816H244.108C244.108 56.5492 241.739 64.2332 237.054 69.9221L237.826 70.5579ZM245.108 46.816C245.108 36.923 242.698 29.0318 237.824 23.1993L237.056 23.8407C241.739 29.4429 244.108 37.0823 244.108 46.816H245.108ZM237.826 23.2021C232.933 17.2605 225.865 14.316 216.704 14.316V15.316C225.633 15.316 232.39 18.1741 237.054 23.8379L237.826 23.2021ZM216.704 14.316C207.459 14.316 200.348 17.2594 195.454 23.2021L196.226 23.8379C200.889 18.1753 207.687 15.316 216.704 15.316V14.316ZM360.364 71.264L360.687 71.6459L360.687 71.6455L360.364 71.264ZM328.876 81.76L328.842 81.2611L328.376 81.2928V81.76H328.876ZM328.876 92V92.5H329.376V92H328.876ZM314.156 92H313.656V92.5H314.156V92ZM314.156 81.76H314.656V81.2926L314.19 81.2611L314.156 81.76ZM282.412 71.264L282.087 71.6437L282.091 71.6477L282.412 71.264ZM282.412 23.136L282.735 23.5179L282.735 23.5175L282.412 23.136ZM314.156 12.512L314.19 13.0109L314.656 12.9794V12.512H314.156ZM314.156 1.75999V1.25999H313.656V1.75999H314.156ZM328.876 1.75999H329.376V1.25999H328.876V1.75999ZM328.876 12.512H328.376V12.9792L328.842 13.0108L328.876 12.512ZM360.364 23.136L360.039 23.5157L360.043 23.5197L360.364 23.136ZM328.876 67.424H328.376V67.9581L328.909 67.9229L328.876 67.424ZM348.588 61.536L348.903 61.9241L348.908 61.9201L348.588 61.536ZM348.46 32.736L348.145 33.1241L348.149 33.1272L348.46 32.736ZM328.876 26.848L328.909 26.3491L328.376 26.3136V26.848H328.876ZM294.316 32.736L294.005 32.3448L294.001 32.3479L294.316 32.736ZM294.316 61.536L293.996 61.9202L294.005 61.9272L294.316 61.536ZM314.156 67.424L314.123 67.9229L314.656 67.9581V67.424H314.156ZM314.156 26.848H314.656V26.3139L314.123 26.3491L314.156 26.848ZM370.744 47.072C370.744 56.9175 367.176 64.8388 360.041 70.8825L360.687 71.6455C368.059 65.4012 371.744 57.1945 371.744 47.072H370.744ZM360.041 70.8821C352.985 76.8462 342.608 80.3264 328.842 81.2611L328.91 82.2589C342.792 81.3162 353.407 77.7991 360.687 71.6459L360.041 70.8821ZM328.376 81.76V92H329.376V81.76H328.376ZM328.876 91.5H314.156V92.5H328.876V91.5ZM314.656 92V81.76H313.656V92H314.656ZM314.19 81.2611C300.338 80.3264 289.875 76.8459 282.733 70.8803L282.091 71.6477C289.456 77.7994 300.155 81.3163 314.122 82.2589L314.19 81.2611ZM282.737 70.8844C275.687 64.8414 272.16 56.9196 272.16 47.072H271.16C271.16 57.1924 274.801 65.3986 282.087 71.6436L282.737 70.8844ZM272.16 47.072C272.16 37.3113 275.686 29.4757 282.735 23.5179L282.089 22.7541C274.802 28.9136 271.16 37.0354 271.16 47.072H272.16ZM282.735 23.5175C289.877 17.4681 300.339 13.9455 314.19 13.0109L314.122 12.0131C300.154 12.9558 289.454 16.5159 282.089 22.7545L282.735 23.5175ZM314.656 12.512V1.75999H313.656V12.512H314.656ZM314.156 2.25999H328.876V1.25999H314.156V2.25999ZM328.376 1.75999V12.512H329.376V1.75999H328.376ZM328.842 13.0108C342.607 13.9455 352.983 17.4677 360.039 23.5156L360.689 22.7564C353.409 16.5163 342.793 12.9558 328.91 12.0131L328.842 13.0108ZM360.043 23.5197C367.177 29.4784 370.744 37.3135 370.744 47.072H371.744C371.744 37.0332 368.058 28.911 360.685 22.7523L360.043 23.5197ZM328.909 67.9229C337.991 67.3231 344.687 65.3494 348.903 61.9241L348.273 61.1479C344.297 64.3786 337.851 66.3302 328.843 66.9251L328.909 67.9229ZM348.908 61.9201C353.138 58.3953 355.232 53.4219 355.232 47.072H354.232C354.232 53.1807 352.23 57.85 348.268 61.1519L348.908 61.9201ZM355.232 47.072C355.232 40.7187 353.092 35.784 348.771 32.3448L348.149 33.1272C352.19 36.344 354.232 40.9667 354.232 47.072H355.232ZM348.775 32.3479C344.56 28.9231 337.908 26.949 328.909 26.3491L328.843 27.3469C337.764 27.9417 344.168 29.8929 348.145 33.1241L348.775 32.3479ZM328.376 26.848V67.424H329.376V26.848H328.376ZM294.001 32.3479C289.766 35.7884 287.672 40.7223 287.672 47.072H288.672C288.672 40.963 290.674 36.3396 294.631 33.1241L294.001 32.3479ZM287.672 47.072C287.672 53.4219 289.766 58.3953 293.996 61.9201L294.636 61.1519C290.674 57.85 288.672 53.1807 288.672 47.072H287.672ZM294.005 61.9272C298.304 65.3491 305.039 67.3231 314.123 67.9229L314.189 66.9251C305.182 66.3303 298.691 64.3789 294.627 61.1448L294.005 61.9272ZM314.656 67.424V26.848H313.656V67.424H314.656ZM314.123 26.3491C305.039 26.9489 298.304 28.9229 294.005 32.3448L294.627 33.1272C298.691 29.8931 305.182 27.9417 314.189 27.3469L314.123 26.3491ZM384.06 92H383.56V92.5H384.06V92ZM384.06 1.75999V1.25999H383.56V1.75999H384.06ZM445.116 1.75999H445.616V1.25999H445.116V1.75999ZM445.116 16.096V16.596H445.616V16.096H445.116ZM400.572 16.096V15.596H400.072V16.096H400.572ZM400.572 39.648H400.072V40.148H400.572V39.648ZM438.716 39.648H439.216V39.148H438.716V39.648ZM438.716 53.984V54.484H439.216V53.984H438.716ZM400.572 53.984V53.484H400.072V53.984H400.572ZM400.572 77.664H400.072V78.164H400.572V77.664ZM445.116 77.664H445.616V77.164H445.116V77.664ZM445.116 92V92.5H445.616V92H445.116ZM384.56 92V1.75999H383.56V92H384.56ZM384.06 2.25999H445.116V1.25999H384.06V2.25999ZM444.616 1.75999V16.096H445.616V1.75999H444.616ZM445.116 15.596H400.572V16.596H445.116V15.596ZM400.072 16.096V39.648H401.072V16.096H400.072ZM400.572 40.148H438.716V39.148H400.572V40.148ZM438.216 39.648V53.984H439.216V39.648H438.216ZM438.716 53.484H400.572V54.484H438.716V53.484ZM400.072 53.984V77.664H401.072V53.984H400.072ZM400.572 78.164H445.116V77.164H400.572V78.164ZM444.616 77.664V92H445.616V77.664H444.616ZM445.116 91.5H384.06V92.5H445.116V91.5ZM466.25 13.664L466.616 14.0048L466.618 14.003L466.25 13.664ZM528.458 10.208L528.133 10.5882L528.136 10.5903L528.458 10.208ZM541.898 36.576V37.076H542.463L542.394 36.5154L541.898 36.576ZM525.386 36.576L524.891 36.6484L524.954 37.076H525.386V36.576ZM516.81 20.448L516.494 20.8356L516.498 20.8384L516.81 20.448ZM478.026 23.392L477.651 23.0616L477.65 23.0619L478.026 23.392ZM478.026 70.368L477.648 70.6953L477.651 70.6984L478.026 70.368ZM516.81 73.312L517.126 73.6996L517.127 73.699L516.81 73.312ZM525.386 57.056V56.556H524.954L524.891 56.9836L525.386 57.056ZM541.898 57.056L542.394 57.1162L542.462 56.556H541.898V57.056ZM528.458 83.68L528.78 84.0624L528.783 84.0602L528.458 83.68ZM466.25 80.224L465.882 80.563L465.884 80.5648L466.25 80.224ZM454.59 46.816C454.59 33.5279 458.606 22.6043 466.616 14.0048L465.884 13.3232C457.68 22.1317 453.59 33.3094 453.59 46.816H454.59ZM466.618 14.003C474.616 5.3306 485.313 0.979996 498.762 0.979996V-0.0200043C485.075 -0.0200043 474.097 4.41872 465.882 13.325L466.618 14.003ZM498.762 0.979996C510.873 0.979996 520.648 4.19633 528.133 10.5882L528.783 9.82776C521.079 3.24899 511.056 -0.0200043 498.762 -0.0200043V0.979996ZM528.136 10.5903C535.621 16.8979 540.049 25.5653 541.402 36.6366L542.394 36.5154C541.016 25.2294 536.485 16.3181 528.78 9.82565L528.136 10.5903ZM541.898 36.076H525.386V37.076H541.898V36.076ZM525.881 36.5036C524.842 29.4046 521.932 23.905 517.122 20.0576L516.498 20.8384C521.075 24.5003 523.882 29.7528 524.891 36.6484L525.881 36.5036ZM517.126 20.0604C512.41 16.218 506.36 14.316 499.018 14.316V15.316C506.182 15.316 511.994 17.1686 516.494 20.8356L517.126 20.0604ZM499.018 14.316C489.942 14.316 482.797 17.2172 477.651 23.0616L478.401 23.7224C483.324 18.1322 490.174 15.316 499.018 15.316V14.316ZM477.65 23.0619C472.598 28.8118 470.102 36.7514 470.102 46.816H471.102C471.102 36.9126 473.556 29.2362 478.402 23.7221L477.65 23.0619ZM470.102 46.816C470.102 56.8811 472.598 64.8613 477.648 70.6953L478.404 70.0407C473.556 64.44 471.102 56.7189 471.102 46.816H470.102ZM477.651 70.6984C482.797 76.5428 489.942 79.444 499.018 79.444V78.444C490.174 78.444 483.324 75.6278 478.401 70.0376L477.651 70.6984ZM499.018 79.444C506.36 79.444 512.41 77.542 517.126 73.6996L516.494 72.9244C511.994 76.5914 506.182 78.444 499.018 78.444V79.444ZM517.127 73.699C521.932 69.7671 524.842 64.2273 525.881 57.1284L524.891 56.9836C523.882 63.8794 521.074 69.1769 516.493 72.925L517.127 73.699ZM525.386 57.556H541.898V56.556H525.386V57.556ZM541.402 56.9958C540.049 68.1536 535.62 76.907 528.133 83.2998L528.783 84.0602C536.486 77.4823 541.016 68.4864 542.394 57.1162L541.402 56.9958ZM528.136 83.2977C520.651 89.6054 510.875 92.78 498.762 92.78V93.78C511.055 93.78 521.076 90.5546 528.78 84.0623L528.136 83.2977ZM498.762 92.78C485.311 92.78 474.614 88.471 466.616 79.8832L465.884 80.5648C474.099 89.385 485.077 93.78 498.762 93.78V92.78ZM466.618 79.885C458.607 71.2 454.59 60.1903 454.59 46.816H453.59C453.59 60.407 457.68 71.6694 465.882 80.563L466.618 79.885ZM567.185 13.664L567.551 14.0048L567.553 14.003L567.185 13.664ZM629.393 10.208L629.068 10.5882L629.071 10.5903L629.393 10.208ZM642.833 36.576V37.076H643.398L643.329 36.5154L642.833 36.576ZM626.321 36.576L625.826 36.6484L625.889 37.076H626.321V36.576ZM617.745 20.448L617.429 20.8356L617.433 20.8384L617.745 20.448ZM578.961 23.392L578.586 23.0616L578.585 23.0619L578.961 23.392ZM578.961 70.368L578.583 70.6953L578.586 70.6984L578.961 70.368ZM617.745 73.312L618.061 73.6996L618.062 73.699L617.745 73.312ZM626.321 57.056V56.556H625.889L625.826 56.9836L626.321 57.056ZM642.833 57.056L643.329 57.1162L643.397 56.556H642.833V57.056ZM629.393 83.68L629.715 84.0624L629.718 84.0602L629.393 83.68ZM567.185 80.224L566.817 80.563L566.819 80.5648L567.185 80.224ZM555.525 46.816C555.525 33.5279 559.542 22.6043 567.551 14.0048L566.819 13.3232C558.615 22.1317 554.525 33.3094 554.525 46.816H555.525ZM567.553 14.003C575.551 5.3306 586.248 0.979996 599.697 0.979996V-0.0200043C586.01 -0.0200043 575.032 4.41872 566.817 13.325L567.553 14.003ZM599.697 0.979996C611.808 0.979996 621.583 4.19633 629.068 10.5882L629.718 9.82776C622.014 3.24899 611.991 -0.0200043 599.697 -0.0200043V0.979996ZM629.071 10.5903C636.556 16.8979 640.984 25.5653 642.337 36.6366L643.329 36.5154C641.951 25.2294 637.42 16.3181 629.715 9.82565L629.071 10.5903ZM642.833 36.076H626.321V37.076H642.833V36.076ZM626.816 36.5036C625.777 29.4046 622.867 23.905 618.057 20.0576L617.433 20.8384C622.01 24.5003 624.817 29.7528 625.826 36.6484L626.816 36.5036ZM618.061 20.0604C613.345 16.218 607.295 14.316 599.953 14.316V15.316C607.117 15.316 612.929 17.1686 617.429 20.8356L618.061 20.0604ZM599.953 14.316C590.877 14.316 583.732 17.2172 578.586 23.0616L579.336 23.7224C584.259 18.1322 591.109 15.316 599.953 15.316V14.316ZM578.585 23.0619C573.532 28.8118 571.037 36.7514 571.037 46.816H572.037C572.037 36.9126 574.491 29.2362 579.337 23.7221L578.585 23.0619ZM571.037 46.816C571.037 56.8811 573.533 64.8613 578.583 70.6953L579.339 70.0407C574.491 64.44 572.037 56.7189 572.037 46.816H571.037ZM578.586 70.6984C583.732 76.5428 590.877 79.444 599.953 79.444V78.444C591.109 78.444 584.259 75.6278 579.336 70.0376L578.586 70.6984ZM599.953 79.444C607.295 79.444 613.345 77.542 618.061 73.6996L617.429 72.9244C612.929 76.5914 607.117 78.444 599.953 78.444V79.444ZM618.062 73.699C622.867 69.7671 625.777 64.2273 626.816 57.1284L625.826 56.9836C624.817 63.8794 622.009 69.1769 617.428 72.925L618.062 73.699ZM626.321 57.556H642.833V56.556H626.321V57.556ZM642.337 56.9958C640.984 68.1536 636.555 76.907 629.068 83.2998L629.718 84.0602C637.421 77.4823 641.951 68.4864 643.329 57.1162L642.337 56.9958ZM629.071 83.2977C621.586 89.6054 611.81 92.78 599.697 92.78V93.78C611.99 93.78 622.011 90.5546 629.715 84.0623L629.071 83.2977ZM599.697 92.78C586.246 92.78 575.549 88.471 567.551 79.8832L566.819 80.5648C575.034 89.385 586.012 93.78 599.697 93.78V92.78ZM567.553 79.885C559.542 71.2 555.525 60.1903 555.525 46.816H554.525C554.525 60.407 558.615 71.6694 566.817 80.563L567.553 79.885ZM743.104 92V92.5H743.604V92H743.104ZM726.592 92H726.092V92.5H726.592V92ZM726.592 16.736L726.11 16.604L726.092 16.6688V16.736H726.592ZM729.536 5.98399L730.018 6.11604L730.191 5.48399H729.536V5.98399ZM725.312 5.98399V5.48399H724.973L724.848 5.79877L725.312 5.98399ZM691.008 92V92.5H691.347L691.472 92.1852L691.008 92ZM658.368 92H657.868V92.5H658.368V92ZM658.368 1.75999V1.25999H657.868V1.75999H658.368ZM674.752 1.75999H675.252V1.25999H674.752V1.75999ZM674.752 77.024L675.234 77.156L675.252 77.0912V77.024H674.752ZM671.808 87.776L671.326 87.644L671.153 88.276H671.808V87.776ZM676.032 87.776V88.276H676.37L676.496 87.9618L676.032 87.776ZM710.464 1.75999V1.25999H710.126L710 1.57418L710.464 1.75999ZM743.104 1.75999H743.604V1.25999H743.104V1.75999ZM743.104 91.5H726.592V92.5H743.104V91.5ZM727.092 92V16.736H726.092V92H727.092ZM727.074 16.868L730.018 6.11604L729.054 5.85195L726.11 16.604L727.074 16.868ZM729.536 5.48399H725.312V6.48399H729.536V5.48399ZM724.848 5.79877L690.544 91.8148L691.472 92.1852L725.776 6.16921L724.848 5.79877ZM691.008 91.5H658.368V92.5H691.008V91.5ZM658.868 92V1.75999H657.868V92H658.868ZM658.368 2.25999H674.752V1.25999H658.368V2.25999ZM674.252 1.75999V77.024H675.252V1.75999H674.252ZM674.27 76.892L671.326 87.644L672.29 87.908L675.234 77.156L674.27 76.892ZM671.808 88.276H676.032V87.276H671.808V88.276ZM676.496 87.9618L710.928 1.94581L710 1.57418L675.568 87.5902L676.496 87.9618ZM710.464 2.25999H743.104V1.25999H710.464V2.25999ZM742.604 1.75999V92H743.604V1.75999H742.604ZM769.552 80.224L769.183 80.5611L769.186 80.5648L769.552 80.224ZM769.552 13.536L769.186 13.1952L769.184 13.1972L769.552 13.536ZM834.448 13.664L834.079 14.001L834.08 14.0028L834.448 13.664ZM834.448 80.224L834.816 80.5628L834.817 80.5611L834.448 80.224ZM781.2 23.52L781.584 23.8407L781.586 23.8379L781.2 23.52ZM781.2 70.24L780.814 70.5579L781.2 70.24ZM822.8 70.24L822.414 69.9221L822.411 69.9256L822.8 70.24ZM822.8 23.52L822.414 23.8379L822.416 23.8407L822.8 23.52ZM769.921 79.8869C761.995 71.2021 758.02 60.1918 758.02 46.816H757.02C757.02 60.4056 761.066 71.6672 769.183 80.5611L769.921 79.8869ZM758.02 46.816C758.02 33.4401 761.995 22.4736 769.92 13.8748L769.184 13.1972C761.066 22.0064 757.02 33.2265 757.02 46.816H758.02ZM769.918 13.8768C777.916 5.28903 788.613 0.979996 802.064 0.979996V-0.0200043C788.379 -0.0200043 777.401 4.37496 769.186 13.1952L769.918 13.8768ZM802.064 0.979996C815.513 0.979996 826.166 5.33056 834.079 14.001L834.817 13.3269C826.688 4.41876 815.751 -0.0200043 802.064 -0.0200043V0.979996ZM834.08 14.0028C842.005 22.6022 845.98 33.5264 845.98 46.816H846.98C846.98 33.3109 842.933 22.1338 834.816 13.3252L834.08 14.0028ZM845.98 46.816C845.98 60.1918 842.005 71.2021 834.079 79.8869L834.817 80.5611C842.934 71.6672 846.98 60.4056 846.98 46.816H845.98ZM834.08 79.8852C826.168 88.471 815.515 92.78 802.064 92.78V93.78C815.749 93.78 826.685 89.385 834.816 80.5628L834.08 79.8852ZM802.064 92.78C788.613 92.78 777.916 88.471 769.918 79.8832L769.186 80.5648C777.401 89.385 788.379 93.78 802.064 93.78V92.78ZM780.816 23.1993C775.941 29.0318 773.532 36.923 773.532 46.816H774.532C774.532 37.0823 776.901 29.4429 781.584 23.8407L780.816 23.1993ZM773.532 46.816C773.532 56.7094 775.942 64.6414 780.814 70.5579L781.586 69.9221C776.901 64.2332 774.532 56.5492 774.532 46.816H773.532ZM780.814 70.5579C785.708 76.5006 792.819 79.444 802.064 79.444V78.444C793.047 78.444 786.249 75.5847 781.586 69.9221L780.814 70.5579ZM802.064 79.444C811.308 79.444 818.379 76.5006 823.189 70.5544L822.411 69.9256C817.834 75.5847 811.081 78.444 802.064 78.444V79.444ZM823.186 70.5579C828.058 64.6414 830.468 56.7094 830.468 46.816H829.468C829.468 56.5492 827.099 64.2332 822.414 69.9221L823.186 70.5579ZM830.468 46.816C830.468 36.923 828.058 29.0318 823.184 23.1993L822.416 23.8407C827.099 29.4429 829.468 37.0823 829.468 46.816H830.468ZM823.186 23.2021C818.293 17.2605 811.225 14.316 802.064 14.316V15.316C810.993 15.316 817.75 18.1741 822.414 23.8379L823.186 23.2021ZM802.064 14.316C792.819 14.316 785.708 17.2594 780.814 23.2021L781.586 23.8379C786.249 18.1753 793.047 15.316 802.064 15.316V14.316ZM926.884 1.75999V1.25999H926.384V1.75999H926.884ZM943.268 1.75999H943.768V1.25999H943.268V1.75999ZM943.268 92V92.5H943.768V92H943.268ZM926.884 92H926.384V92.5H926.884V92ZM926.884 55.008H927.384V54.508H926.884V55.008ZM878.372 55.008V54.508H877.872V55.008H878.372ZM878.372 92V92.5H878.872V92H878.372ZM861.86 92H861.36V92.5H861.86V92ZM861.86 1.75999V1.25999H861.36V1.75999H861.86ZM878.372 1.75999H878.872V1.25999H878.372V1.75999ZM878.372 40.672H877.872V41.172H878.372V40.672ZM926.884 40.672V41.172H927.384V40.672H926.884ZM926.884 2.25999H943.268V1.25999H926.884V2.25999ZM942.768 1.75999V92H943.768V1.75999H942.768ZM943.268 91.5H926.884V92.5H943.268V91.5ZM927.384 92V55.008H926.384V92H927.384ZM926.884 54.508H878.372V55.508H926.884V54.508ZM877.872 55.008V92H878.872V55.008H877.872ZM878.372 91.5H861.86V92.5H878.372V91.5ZM862.36 92V1.75999H861.36V92H862.36ZM861.86 2.25999H878.372V1.25999H861.86V2.25999ZM877.872 1.75999V40.672H878.872V1.75999H877.872ZM878.372 41.172H926.884V40.172H878.372V41.172ZM927.384 40.672V1.75999H926.384V40.672H927.384ZM1028.11 92L1027.63 92.1422L1027.74 92.5H1028.11V92ZM1018.77 60.512L1019.25 60.3698L1019.14 60.012H1018.77V60.512ZM982.159 60.512V60.012H981.786L981.68 60.3698L982.159 60.512ZM972.815 92V92.5H973.188L973.294 92.1422L972.815 92ZM956.175 92L955.696 91.8554L955.502 92.5H956.175V92ZM983.439 1.75999V1.25999H983.068L982.96 1.61539L983.439 1.75999ZM1017.36 1.75999L1017.84 1.61476L1017.73 1.25999H1017.36V1.75999ZM1044.75 92V92.5H1045.43L1045.23 91.8548L1044.75 92ZM986.383 46.176L985.904 46.034L985.713 46.676H986.383V46.176ZM1014.41 46.176V46.676H1015.08L1014.89 46.034L1014.41 46.176ZM1002.51 5.98399L1002.99 5.842L1002.88 5.48399H1002.51V5.98399ZM998.287 5.98399V5.48399H997.914L997.808 5.842L998.287 5.98399ZM1028.59 91.8578L1019.25 60.3698L1018.29 60.6542L1027.63 92.1422L1028.59 91.8578ZM1018.77 60.012H982.159V61.012H1018.77V60.012ZM981.68 60.3698L972.336 91.8578L973.294 92.1422L982.638 60.6542L981.68 60.3698ZM972.815 91.5H956.175V92.5H972.815V91.5ZM956.654 92.1446L983.918 1.9046L982.96 1.61539L955.696 91.8554L956.654 92.1446ZM983.439 2.25999H1017.36V1.25999H983.439V2.25999ZM1016.88 1.90522L1044.27 92.1452L1045.23 91.8548L1017.84 1.61476L1016.88 1.90522ZM1044.75 91.5H1028.11V92.5H1044.75V91.5ZM986.383 46.676H1014.41V45.676H986.383V46.676ZM1014.89 46.034L1002.99 5.842L1002.03 6.12599L1013.94 46.318L1014.89 46.034ZM1002.51 5.48399H998.287V6.48399H1002.51V5.48399ZM997.808 5.842L985.904 46.034L986.862 46.318L998.766 6.12599L997.808 5.842ZM1133.99 1.75999H1134.49V1.25999H1133.99V1.75999ZM1133.99 92V92.5H1134.49V92H1133.99ZM1117.61 92H1117.11V92.5H1117.61V92ZM1117.61 16.096H1118.11V15.596H1117.61V16.096ZM1089.45 16.096V15.596H1088.95L1088.95 16.0897L1089.45 16.096ZM1088.94 33.632L1088.44 33.6062L1088.44 33.6148L1088.94 33.632ZM1085.35 63.84L1085.83 63.9688L1085.83 63.9662L1085.35 63.84ZM1081.13 75.36L1081.58 75.5754L1081.58 75.5714L1081.13 75.36ZM1074.73 84.448L1075.07 84.8144L1075.07 84.8139L1074.73 84.448ZM1065.77 89.952L1065.95 90.4178L1065.95 90.4155L1065.77 89.952ZM1053.73 92H1053.23V92.5H1053.73V92ZM1053.73 77.664V77.164H1053.23V77.664H1053.73ZM1061.8 75.36L1061.52 74.9439L1061.51 74.9489L1061.8 75.36ZM1067.3 67.296L1067.77 67.4635L1067.78 67.4603L1067.3 67.296ZM1070.63 56.288L1071.12 56.4093L1071.12 56.4065L1070.63 56.288ZM1072.3 40.416L1071.8 40.3919L1071.8 40.3979L1072.3 40.416ZM1072.94 23.136L1073.43 23.1456V23.1454L1072.94 23.136ZM1073.06 1.75999V1.25999H1072.56V1.75999H1073.06ZM1133.49 1.75999V92H1134.49V1.75999H1133.49ZM1133.99 91.5H1117.61V92.5H1133.99V91.5ZM1118.11 92V16.096H1117.11V92H1118.11ZM1117.61 15.596H1089.45V16.596H1117.61V15.596ZM1088.95 16.0897C1088.86 22.8266 1088.69 28.6652 1088.44 33.6062L1089.43 33.6578C1089.69 28.7002 1089.86 22.848 1089.95 16.1023L1088.95 16.0897ZM1088.44 33.6148C1088.27 38.5507 1087.88 43.8294 1087.29 49.4513L1088.28 49.5567C1088.88 43.9146 1089.26 38.612 1089.43 33.6492L1088.44 33.6148ZM1087.29 49.4513C1086.69 55.0674 1085.88 59.8199 1084.87 63.7138L1085.83 63.9662C1086.87 60.0094 1087.68 55.2046 1088.28 49.5567L1087.29 49.4513ZM1084.87 63.7112C1083.85 67.521 1082.45 71.3334 1080.67 75.1486L1081.58 75.5714C1083.38 71.7066 1084.8 67.839 1085.83 63.9688L1084.87 63.7112ZM1080.68 75.1446C1078.9 78.8553 1076.81 81.8295 1074.39 84.0821L1075.07 84.8139C1077.6 82.4585 1079.77 79.3741 1081.58 75.5754L1080.68 75.1446ZM1074.39 84.0816C1072.05 86.252 1069.12 88.0565 1065.58 89.4885L1065.95 90.4155C1069.58 88.9461 1072.63 87.0813 1075.07 84.8144L1074.39 84.0816ZM1065.59 89.4862C1062.16 90.8248 1058.21 91.5 1053.73 91.5V92.5C1058.31 92.5 1062.38 91.8098 1065.95 90.4178L1065.59 89.4862ZM1054.23 92V77.664H1053.23V92H1054.23ZM1053.73 78.164C1056.98 78.164 1059.77 77.3743 1062.08 75.7711L1061.51 74.9489C1059.39 76.4177 1056.81 77.164 1053.73 77.164V78.164ZM1062.08 75.776C1064.5 74.1579 1066.39 71.3592 1067.77 67.4635L1066.83 67.1285C1065.49 70.9128 1063.7 73.4901 1061.52 74.944L1062.08 75.776ZM1067.78 67.4603C1069.14 63.5232 1070.26 59.8394 1071.12 56.4093L1070.15 56.1667C1069.3 59.5632 1068.19 63.2181 1066.83 67.1317L1067.78 67.4603ZM1071.12 56.4065C1071.98 52.8568 1072.54 47.5247 1072.79 40.4341L1071.8 40.3979C1071.54 47.4726 1070.99 52.7219 1070.15 56.1695L1071.12 56.4065ZM1072.79 40.4401C1073.14 33.3551 1073.35 27.5897 1073.43 23.1456L1072.44 23.1264C1072.35 27.5569 1072.14 33.3116 1071.8 40.3919L1072.79 40.4401ZM1073.43 23.1454C1073.52 18.6178 1073.56 11.7446 1073.56 2.52799H1072.56C1072.56 11.7434 1072.52 18.6088 1072.44 23.1266L1073.43 23.1454ZM1073.56 2.52799C1073.56 2.52733 1073.56 2.52666 1073.56 2.52599C1073.56 2.52533 1073.56 2.52466 1073.56 2.524C1073.56 2.52333 1073.56 2.52267 1073.56 2.522C1073.56 2.52134 1073.56 2.52067 1073.56 2.52001C1073.56 2.51934 1073.56 2.51868 1073.56 2.51802C1073.56 2.51735 1073.56 2.51669 1073.56 2.51603C1073.56 2.51536 1073.56 2.5147 1073.56 2.51404C1073.56 2.51338 1073.56 2.51272 1073.56 2.51205C1073.56 2.51139 1073.56 2.51073 1073.56 2.51007C1073.56 2.50941 1073.56 2.50875 1073.56 2.50809C1073.56 2.50743 1073.56 2.50677 1073.56 2.50611C1073.56 2.50545 1073.56 2.50479 1073.56 2.50413C1073.56 2.50347 1073.56 2.50282 1073.56 2.50216C1073.56 2.5015 1073.56 2.50084 1073.56 2.50018C1073.56 2.49953 1073.56 2.49887 1073.56 2.49821C1073.56 2.49756 1073.56 2.4969 1073.56 2.49624C1073.56 2.49559 1073.56 2.49493 1073.56 2.49428C1073.56 2.49362 1073.56 2.49296 1073.56 2.49231C1073.56 2.49165 1073.56 2.491 1073.56 2.49035C1073.56 2.48969 1073.56 2.48904 1073.56 2.48838C1073.56 2.48773 1073.56 2.48708 1073.56 2.48642C1073.56 2.48577 1073.56 2.48512 1073.56 2.48447C1073.56 2.48381 1073.56 2.48316 1073.56 2.48251C1073.56 2.48186 1073.56 2.48121 1073.56 2.48056C1073.56 2.4799 1073.56 2.47925 1073.56 2.4786C1073.56 2.47795 1073.56 2.4773 1073.56 2.47665C1073.56 2.476 1073.56 2.47535 1073.56 2.4747C1073.56 2.47406 1073.56 2.47341 1073.56 2.47276C1073.56 2.47211 1073.56 2.47146 1073.56 2.47081C1073.56 2.47017 1073.56 2.46952 1073.56 2.46887C1073.56 2.46822 1073.56 2.46758 1073.56 2.46693C1073.56 2.46629 1073.56 2.46564 1073.56 2.46499C1073.56 2.46435 1073.56 2.4637 1073.56 2.46306C1073.56 2.46241 1073.56 2.46177 1073.56 2.46112C1073.56 2.46048 1073.56 2.45983 1073.56 2.45919C1073.56 2.45855 1073.56 2.4579 1073.56 2.45726C1073.56 2.45662 1073.56 2.45597 1073.56 2.45533C1073.56 2.45469 1073.56 2.45405 1073.56 2.4534C1073.56 2.45276 1073.56 2.45212 1073.56 2.45148C1073.56 2.45084 1073.56 2.4502 1073.56 2.44956C1073.56 2.44892 1073.56 2.44827 1073.56 2.44763C1073.56 2.44699 1073.56 2.44636 1073.56 2.44572C1073.56 2.44508 1073.56 2.44444 1073.56 2.4438C1073.56 2.44316 1073.56 2.44252 1073.56 2.44188C1073.56 2.44125 1073.56 2.44061 1073.56 2.43997C1073.56 2.43933 1073.56 2.4387 1073.56 2.43806C1073.56 2.43742 1073.56 2.43679 1073.56 2.43615C1073.56 2.43551 1073.56 2.43488 1073.56 2.43424C1073.56 2.43361 1073.56 2.43297 1073.56 2.43234C1073.56 2.4317 1073.56 2.43107 1073.56 2.43043C1073.56 2.4298 1073.56 2.42917 1073.56 2.42853C1073.56 2.4279 1073.56 2.42727 1073.56 2.42663C1073.56 2.426 1073.56 2.42537 1073.56 2.42474C1073.56 2.4241 1073.56 2.42347 1073.56 2.42284C1073.56 2.42221 1073.56 2.42158 1073.56 2.42095C1073.56 2.42032 1073.56 2.41969 1073.56 2.41906C1073.56 2.41843 1073.56 2.4178 1073.56 2.41717C1073.56 2.41654 1073.56 2.41591 1073.56 2.41528C1073.56 2.41465 1073.56 2.41402 1073.56 2.41339C1073.56 2.41277 1073.56 2.41214 1073.56 2.41151C1073.56 2.41088 1073.56 2.41025 1073.56 2.40963C1073.56 2.409 1073.56 2.40837 1073.56 2.40775C1073.56 2.40712 1073.56 2.4065 1073.56 2.40587C1073.56 2.40524 1073.56 2.40462 1073.56 2.40399C1073.56 2.40337 1073.56 2.40274 1073.56 2.40212C1073.56 2.4015 1073.56 2.40087 1073.56 2.40025C1073.56 2.39962 1073.56 2.399 1073.56 2.39838C1073.56 2.39775 1073.56 2.39713 1073.56 2.39651C1073.56 2.39589 1073.56 2.39527 1073.56 2.39464C1073.56 2.39402 1073.56 2.3934 1073.56 2.39278C1073.56 2.39216 1073.56 2.39154 1073.56 2.39092C1073.56 2.3903 1073.56 2.38968 1073.56 2.38906C1073.56 2.38844 1073.56 2.38782 1073.56 2.3872C1073.56 2.38658 1073.56 2.38596 1073.56 2.38534C1073.56 2.38472 1073.56 2.3841 1073.56 2.38349C1073.56 2.38287 1073.56 2.38225 1073.56 2.38163C1073.56 2.38102 1073.56 2.3804 1073.56 2.37978C1073.56 2.37917 1073.56 2.37855 1073.56 2.37794C1073.56 2.37732 1073.56 2.3767 1073.56 2.37609C1073.56 2.37547 1073.56 2.37486 1073.56 2.37424C1073.56 2.37363 1073.56 2.37302 1073.56 2.3724C1073.56 2.37179 1073.56 2.37117 1073.56 2.37056C1073.56 2.36995 1073.56 2.36933 1073.56 2.36872C1073.56 2.36811 1073.56 2.3675 1073.56 2.36688C1073.56 2.36627 1073.56 2.36566 1073.56 2.36505C1073.56 2.36444 1073.56 2.36383 1073.56 2.36322C1073.56 2.36261 1073.56 2.362 1073.56 2.36139C1073.56 2.36078 1073.56 2.36017 1073.56 2.35956C1073.56 2.35895 1073.56 2.35834 1073.56 2.35773C1073.56 2.35712 1073.56 2.35651 1073.56 2.3559C1073.56 2.3553 1073.56 2.35469 1073.56 2.35408C1073.56 2.35347 1073.56 2.35287 1073.56 2.35226C1073.56 2.35165 1073.56 2.35105 1073.56 2.35044C1073.56 2.34983 1073.56 2.34923 1073.56 2.34862C1073.56 2.34802 1073.56 2.34741 1073.56 2.34681C1073.56 2.3462 1073.56 2.3456 1073.56 2.34499C1073.56 2.34439 1073.56 2.34379 1073.56 2.34318C1073.56 2.34258 1073.56 2.34198 1073.56 2.34137C1073.56 2.34077 1073.56 2.34017 1073.56 2.33957C1073.56 2.33896 1073.56 2.33836 1073.56 2.33776C1073.56 2.33716 1073.56 2.33656 1073.56 2.33596C1073.56 2.33536 1073.56 2.33475 1073.56 2.33415C1073.56 2.33355 1073.56 2.33295 1073.56 2.33236C1073.56 2.33176 1073.56 2.33116 1073.56 2.33056C1073.56 2.32996 1073.56 2.32936 1073.56 2.32876C1073.56 2.32816 1073.56 2.32756 1073.56 2.32697C1073.56 2.32637 1073.56 2.32577 1073.56 2.32518C1073.56 2.32458 1073.56 2.32398 1073.56 2.32339C1073.56 2.32279 1073.56 2.32219 1073.56 2.3216C1073.56 2.321 1073.56 2.32041 1073.56 2.31981C1073.56 2.31922 1073.56 2.31862 1073.56 2.31803C1073.56 2.31743 1073.56 2.31684 1073.56 2.31624C1073.56 2.31565 1073.56 2.31506 1073.56 2.31446C1073.56 2.31387 1073.56 2.31328 1073.56 2.31269C1073.56 2.31209 1073.56 2.3115 1073.56 2.31091C1073.56 2.31032 1073.56 2.30973 1073.56 2.30914C1073.56 2.30854 1073.56 2.30795 1073.56 2.30736C1073.56 2.30677 1073.56 2.30618 1073.56 2.30559C1073.56 2.305 1073.56 2.30441 1073.56 2.30382C1073.56 2.30323 1073.56 2.30265 1073.56 2.30206C1073.56 2.30147 1073.56 2.30088 1073.56 2.30029C1073.56 2.2997 1073.56 2.29912 1073.56 2.29853C1073.56 2.29794 1073.56 2.29736 1073.56 2.29677C1073.56 2.29618 1073.56 2.2956 1073.56 2.29501C1073.56 2.29442 1073.56 2.29384 1073.56 2.29325C1073.56 2.29267 1073.56 2.29208 1073.56 2.2915C1073.56 2.29091 1073.56 2.29033 1073.56 2.28975C1073.56 2.28916 1073.56 2.28858 1073.56 2.28799C1073.56 2.28741 1073.56 2.28683 1073.56 2.28625C1073.56 2.28566 1073.56 2.28508 1073.56 2.2845C1073.56 2.28392 1073.56 2.28334 1073.56 2.28275C1073.56 2.28217 1073.56 2.28159 1073.56 2.28101C1073.56 2.28043 1073.56 2.27985 1073.56 2.27927C1073.56 2.27869 1073.56 2.27811 1073.56 2.27753C1073.56 2.27695 1073.56 2.27637 1073.56 2.27579C1073.56 2.27521 1073.56 2.27464 1073.56 2.27406C1073.56 2.27348 1073.56 2.2729 1073.56 2.27232C1073.56 2.27175 1073.56 2.27117 1073.56 2.27059C1073.56 2.27002 1073.56 2.26944 1073.56 2.26886C1073.56 2.26829 1073.56 2.26771 1073.56 2.26714C1073.56 2.26656 1073.56 2.26599 1073.56 2.26541C1073.56 2.26484 1073.56 2.26426 1073.56 2.26369C1073.56 2.26311 1073.56 2.26254 1073.56 2.26196C1073.56 2.26139 1073.56 2.26082 1073.56 2.26025C1073.56 2.25967 1073.56 2.2591 1073.56 2.25853C1073.56 2.25796 1073.56 2.25738 1073.56 2.25681C1073.56 2.25624 1073.56 2.25567 1073.56 2.2551C1073.56 2.25453 1073.56 2.25396 1073.56 2.25339C1073.56 2.25282 1073.56 2.25225 1073.56 2.25168C1073.56 2.25111 1073.56 2.25054 1073.56 2.24997C1073.56 2.2494 1073.56 2.24883 1073.56 2.24826C1073.56 2.24769 1073.56 2.24713 1073.56 2.24656C1073.56 2.24599 1073.56 2.24542 1073.56 2.24486C1073.56 2.24429 1073.56 2.24372 1073.56 2.24316C1073.56 2.24259 1073.56 2.24202 1073.56 2.24146C1073.56 2.24089 1073.56 2.24033 1073.56 2.23976C1073.56 2.2392 1073.56 2.23863 1073.56 2.23807C1073.56 2.2375 1073.56 2.23694 1073.56 2.23637C1073.56 2.23581 1073.56 2.23525 1073.56 2.23468C1073.56 2.23412 1073.56 2.23356 1073.56 2.233C1073.56 2.23243 1073.56 2.23187 1073.56 2.23131C1073.56 2.23075 1073.56 2.23019 1073.56 2.22962C1073.56 2.22906 1073.56 2.2285 1073.56 2.22794C1073.56 2.22738 1073.56 2.22682 1073.56 2.22626C1073.56 2.2257 1073.56 2.22514 1073.56 2.22458C1073.56 2.22402 1073.56 2.22346 1073.56 2.22291C1073.56 2.22235 1073.56 2.22179 1073.56 2.22123C1073.56 2.22067 1073.56 2.22012 1073.56 2.21956C1073.56 2.219 1073.56 2.21844 1073.56 2.21789C1073.56 2.21733 1073.56 2.21677 1073.56 2.21622C1073.56 2.21566 1073.56 2.21511 1073.56 2.21455C1073.56 2.214 1073.56 2.21344 1073.56 2.21289C1073.56 2.21233 1073.56 2.21178 1073.56 2.21122C1073.56 2.21067 1073.56 2.21012 1073.56 2.20956C1073.56 2.20901 1073.56 2.20846 1073.56 2.2079C1073.56 2.20735 1073.56 2.2068 1073.56 2.20625C1073.56 2.20569 1073.56 2.20514 1073.56 2.20459C1073.56 2.20404 1073.56 2.20349 1073.56 2.20294C1073.56 2.20239 1073.56 2.20184 1073.56 2.20129C1073.56 2.20074 1073.56 2.20019 1073.56 2.19964C1073.56 2.19909 1073.56 2.19854 1073.56 2.19799C1073.56 2.19744 1073.56 2.19689 1073.56 2.19634C1073.56 2.1958 1073.56 2.19525 1073.56 2.1947C1073.56 2.19415 1073.56 2.1936 1073.56 2.19306C1073.56 2.19251 1073.56 2.19196 1073.56 2.19142C1073.56 2.19087 1073.56 2.19033 1073.56 2.18978C1073.56 2.18924 1073.56 2.18869 1073.56 2.18815C1073.56 2.1876 1073.56 2.18706 1073.56 2.18651C1073.56 2.18597 1073.56 2.18542 1073.56 2.18488C1073.56 2.18434 1073.56 2.18379 1073.56 2.18325C1073.56 2.18271 1073.56 2.18216 1073.56 2.18162C1073.56 2.18108 1073.56 2.18054 1073.56 2.18C1073.56 2.17945 1073.56 2.17891 1073.56 2.17837C1073.56 2.17783 1073.56 2.17729 1073.56 2.17675C1073.56 2.17621 1073.56 2.17567 1073.56 2.17513C1073.56 2.17459 1073.56 2.17405 1073.56 2.17351C1073.56 2.17297 1073.56 2.17243 1073.56 2.1719C1073.56 2.17136 1073.56 2.17082 1073.56 2.17028C1073.56 2.16974 1073.56 2.16921 1073.56 2.16867C1073.56 2.16813 1073.56 2.16759 1073.56 2.16706C1073.56 2.16652 1073.56 2.16599 1073.56 2.16545C1073.56 2.16491 1073.56 2.16438 1073.56 2.16384C1073.56 2.16331 1073.56 2.16277 1073.56 2.16224C1073.56 2.1617 1073.56 2.16117 1073.56 2.16064C1073.56 2.1601 1073.56 2.15957 1073.56 2.15904C1073.56 2.1585 1073.56 2.15797 1073.56 2.15744C1073.56 2.1569 1073.56 2.15637 1073.56 2.15584C1073.56 2.15531 1073.56 2.15478 1073.56 2.15425C1073.56 2.15371 1073.56 2.15318 1073.56 2.15265C1073.56 2.15212 1073.56 2.15159 1073.56 2.15106C1073.56 2.15053 1073.56 2.15 1073.56 2.14947C1073.56 2.14894 1073.56 2.14842 1073.56 2.14789C1073.56 2.14736 1073.56 2.14683 1073.56 2.1463C1073.56 2.14577 1073.56 2.14525 1073.56 2.14472C1073.56 2.14419 1073.56 2.14366 1073.56 2.14314C1073.56 2.14261 1073.56 2.14208 1073.56 2.14156C1073.56 2.14103 1073.56 2.14051 1073.56 2.13998C1073.56 2.13946 1073.56 2.13893 1073.56 2.13841C1073.56 2.13788 1073.56 2.13736 1073.56 2.13683C1073.56 2.13631 1073.56 2.13579 1073.56 2.13526C1073.56 2.13474 1073.56 2.13421 1073.56 2.13369C1073.56 2.13317 1073.56 2.13265 1073.56 2.13212C1073.56 2.1316 1073.56 2.13108 1073.56 2.13056C1073.56 2.13004 1073.56 2.12952 1073.56 2.129C1073.56 2.12848 1073.56 2.12795 1073.56 2.12743C1073.56 2.12691 1073.56 2.12639 1073.56 2.12587C1073.56 2.12536 1073.56 2.12484 1073.56 2.12432C1073.56 2.1238 1073.56 2.12328 1073.56 2.12276C1073.56 2.12224 1073.56 2.12173 1073.56 2.12121C1073.56 2.12069 1073.56 2.12017 1073.56 2.11966C1073.56 2.11914 1073.56 2.11862 1073.56 2.11811C1073.56 2.11759 1073.56 2.11707 1073.56 2.11656C1073.56 2.11604 1073.56 2.11553 1073.56 2.11501C1073.56 2.1145 1073.56 2.11398 1073.56 2.11347C1073.56 2.11295 1073.56 2.11244 1073.56 2.11193C1073.56 2.11141 1073.56 2.1109 1073.56 2.11039C1073.56 2.10987 1073.56 2.10936 1073.56 2.10885C1073.56 2.10834 1073.56 2.10782 1073.56 2.10731C1073.56 2.1068 1073.56 2.10629 1073.56 2.10578C1073.56 2.10527 1073.56 2.10476 1073.56 2.10425C1073.56 2.10374 1073.56 2.10323 1073.56 2.10272C1073.56 2.10221 1073.56 2.1017 1073.56 2.10119C1073.56 2.10068 1073.56 2.10017 1073.56 2.09966C1073.56 2.09915 1073.56 2.09864 1073.56 2.09814C1073.56 2.09763 1073.56 2.09712 1073.56 2.09661C1073.56 2.09611 1073.56 2.0956 1073.56 2.09509C1073.56 2.09459 1073.56 2.09408 1073.56 2.09358C1073.56 2.09307 1073.56 2.09256 1073.56 2.09206C1073.56 2.09155 1073.56 2.09105 1073.56 2.09054C1073.56 2.09004 1073.56 2.08954 1073.56 2.08903C1073.56 2.08853 1073.56 2.08802 1073.56 2.08752C1073.56 2.08702 1073.56 2.08651 1073.56 2.08601C1073.56 2.08551 1073.56 2.08501 1073.56 2.08451C1073.56 2.084 1073.56 2.0835 1073.56 2.083C1073.56 2.0825 1073.56 2.082 1073.56 2.0815C1073.56 2.081 1073.56 2.0805 1073.56 2.08C1073.56 2.0795 1073.56 2.079 1073.56 2.0785C1073.56 2.078 1073.56 2.0775 1073.56 2.077C1073.56 2.0765 1073.56 2.076 1073.56 2.0755C1073.56 2.07501 1073.56 2.07451 1073.56 2.07401C1073.56 2.07351 1073.56 2.07302 1073.56 2.07252C1073.56 2.07202 1073.56 2.07153 1073.56 2.07103C1073.56 2.07054 1073.56 2.07004 1073.56 2.06954C1073.56 2.06905 1073.56 2.06855 1073.56 2.06806C1073.56 2.06756 1073.56 2.06707 1073.56 2.06658C1073.56 2.06608 1073.56 2.06559 1073.56 2.06509C1073.56 2.0646 1073.56 2.06411 1073.56 2.06361C1073.56 2.06312 1073.56 2.06263 1073.56 2.06214C1073.56 2.06164 1073.56 2.06115 1073.56 2.06066C1073.56 2.06017 1073.56 2.05968 1073.56 2.05919C1073.56 2.0587 1073.56 2.05821 1073.56 2.05772C1073.56 2.05723 1073.56 2.05674 1073.56 2.05625C1073.56 2.05576 1073.56 2.05527 1073.56 2.05478C1073.56 2.05429 1073.56 2.0538 1073.56 2.05331C1073.56 2.05282 1073.56 2.05234 1073.56 2.05185C1073.56 2.05136 1073.56 2.05087 1073.56 2.05039C1073.56 2.0499 1073.56 2.04941 1073.56 2.04893C1073.56 2.04844 1073.56 2.04795 1073.56 2.04747C1073.56 2.04698 1073.56 2.0465 1073.56 2.04601C1073.56 2.04553 1073.56 2.04504 1073.56 2.04456C1073.56 2.04407 1073.56 2.04359 1073.56 2.04311C1073.56 2.04262 1073.56 2.04214 1073.56 2.04166C1073.56 2.04117 1073.56 2.04069 1073.56 2.04021C1073.56 2.03973 1073.56 2.03924 1073.56 2.03876C1073.56 2.03828 1073.56 2.0378 1073.56 2.03732C1073.56 2.03684 1073.56 2.03636 1073.56 2.03588C1073.56 2.03539 1073.56 2.03491 1073.56 2.03443C1073.56 2.03396 1073.56 2.03348 1073.56 2.033C1073.56 2.03252 1073.56 2.03204 1073.56 2.03156C1073.56 2.03108 1073.56 2.0306 1073.56 2.03013C1073.56 2.02965 1073.56 2.02917 1073.56 2.02869C1073.56 2.02822 1073.56 2.02774 1073.56 2.02726C1073.56 2.02679 1073.56 2.02631 1073.56 2.02583C1073.56 2.02536 1073.56 2.02488 1073.56 2.02441C1073.56 2.02393 1073.56 2.02346 1073.56 2.02298C1073.56 2.02251 1073.56 2.02203 1073.56 2.02156C1073.56 2.02108 1073.56 2.02061 1073.56 2.02014C1073.56 2.01966 1073.56 2.01919 1073.56 2.01872C1073.56 2.01825 1073.56 2.01777 1073.56 2.0173C1073.56 2.01683 1073.56 2.01636 1073.56 2.01589C1073.56 2.01542 1073.56 2.01494 1073.56 2.01447C1073.56 2.014 1073.56 2.01353 1073.56 2.01306C1073.56 2.01259 1073.56 2.01212 1073.56 2.01165C1073.56 2.01118 1073.56 2.01072 1073.56 2.01025C1073.56 2.00978 1073.56 2.00931 1073.56 2.00884C1073.56 2.00837 1073.56 2.00791 1073.56 2.00744C1073.56 2.00697 1073.56 2.0065 1073.56 2.00604C1073.56 2.00557 1073.56 2.0051 1073.56 2.00464C1073.56 2.00417 1073.56 2.00371 1073.56 2.00324C1073.56 2.00277 1073.56 2.00231 1073.56 2.00184C1073.56 2.00138 1073.56 2.00091 1073.56 2.00045C1073.56 1.99999 1073.56 1.99952 1073.56 1.99906C1073.56 1.9986 1073.56 1.99813 1073.56 1.99767C1073.56 1.99721 1073.56 1.99674 1073.56 1.99628C1073.56 1.99582 1073.56 1.99536 1073.56 1.9949C1073.56 1.99443 1073.56 1.99397 1073.56 1.99351C1073.56 1.99305 1073.56 1.99259 1073.56 1.99213C1073.56 1.99167 1073.56 1.99121 1073.56 1.99075C1073.56 1.99029 1073.56 1.98983 1073.56 1.98937C1073.56 1.98891 1073.56 1.98845 1073.56 1.988C1073.56 1.98754 1073.56 1.98708 1073.56 1.98662C1073.56 1.98616 1073.56 1.98571 1073.56 1.98525C1073.56 1.98479 1073.56 1.98434 1073.56 1.98388C1073.56 1.98342 1073.56 1.98297 1073.56 1.98251C1073.56 1.98206 1073.56 1.9816 1073.56 1.98115C1073.56 1.98069 1073.56 1.98024 1073.56 1.97978C1073.56 1.97933 1073.56 1.97887 1073.56 1.97842C1073.56 1.97797 1073.56 1.97751 1073.56 1.97706C1073.56 1.97661 1073.56 1.97615 1073.56 1.9757C1073.56 1.97525 1073.56 1.9748 1073.56 1.97434C1073.56 1.97389 1073.56 1.97344 1073.56 1.97299C1073.56 1.97254 1073.56 1.97209 1073.56 1.97164C1073.56 1.97119 1073.56 1.97074 1073.56 1.97029C1073.56 1.96984 1073.56 1.96939 1073.56 1.96894C1073.56 1.96849 1073.56 1.96804 1073.56 1.96759C1073.56 1.96714 1073.56 1.96669 1073.56 1.96625C1073.56 1.9658 1073.56 1.96535 1073.56 1.9649C1073.56 1.96446 1073.56 1.96401 1073.56 1.96356C1073.56 1.96312 1073.56 1.96267 1073.56 1.96222C1073.56 1.96178 1073.56 1.96133 1073.56 1.96089C1073.56 1.96044 1073.56 1.96 1073.56 1.95955C1073.56 1.95911 1073.56 1.95866 1073.56 1.95822C1073.56 1.95777 1073.56 1.95733 1073.56 1.95689C1073.56 1.95644 1073.56 1.956 1073.56 1.95556C1073.56 1.95512 1073.56 1.95467 1073.56 1.95423C1073.56 1.95379 1073.56 1.95335 1073.56 1.95291C1073.56 1.95246 1073.56 1.95202 1073.56 1.95158C1073.56 1.95114 1073.56 1.9507 1073.56 1.95026C1073.56 1.94982 1073.56 1.94938 1073.56 1.94894C1073.56 1.9485 1073.56 1.94806 1073.56 1.94763C1073.56 1.94719 1073.56 1.94675 1073.56 1.94631C1073.56 1.94587 1073.56 1.94543 1073.56 1.945C1073.56 1.94456 1073.56 1.94412 1073.56 1.94368C1073.56 1.94325 1073.56 1.94281 1073.56 1.94237C1073.56 1.94194 1073.56 1.9415 1073.56 1.94107C1073.56 1.94063 1073.56 1.9402 1073.56 1.93976C1073.56 1.93933 1073.56 1.93889 1073.56 1.93846C1073.56 1.93802 1073.56 1.93759 1073.56 1.93716C1073.56 1.93672 1073.56 1.93629 1073.56 1.93586C1073.56 1.93542 1073.56 1.93499 1073.56 1.93456C1073.56 1.93413 1073.56 1.93369 1073.56 1.93326C1073.56 1.93283 1073.56 1.9324 1073.56 1.93197C1073.56 1.93154 1073.56 1.93111 1073.56 1.93068C1073.56 1.93025 1073.56 1.92982 1073.56 1.92939C1073.56 1.92896 1073.56 1.92853 1073.56 1.9281C1073.56 1.92767 1073.56 1.92724 1073.56 1.92681C1073.56 1.92638 1073.56 1.92596 1073.56 1.92553C1073.56 1.9251 1073.56 1.92467 1073.56 1.92425C1073.56 1.92382 1073.56 1.92339 1073.56 1.92297C1073.56 1.92254 1073.56 1.92211 1073.56 1.92169C1073.56 1.92126 1073.56 1.92084 1073.56 1.92041C1073.56 1.91999 1073.56 1.91956 1073.56 1.91914C1073.56 1.91871 1073.56 1.91829 1073.56 1.91786C1073.56 1.91744 1073.56 1.91702 1073.56 1.91659C1073.56 1.91617 1073.56 1.91575 1073.56 1.91533C1073.56 1.9149 1073.56 1.91448 1073.56 1.91406C1073.56 1.91364 1073.56 1.91322 1073.56 1.91279C1073.56 1.91237 1073.56 1.91195 1073.56 1.91153C1073.56 1.91111 1073.56 1.91069 1073.56 1.91027C1073.56 1.90985 1073.56 1.90943 1073.56 1.90901C1073.56 1.90859 1073.56 1.90817 1073.56 1.90775C1073.56 1.90734 1073.56 1.90692 1073.56 1.9065C1073.56 1.90608 1073.56 1.90566 1073.56 1.90525C1073.56 1.90483 1073.56 1.90441 1073.56 1.904C1073.56 1.90358 1073.56 1.90316 1073.56 1.90275C1073.56 1.90233 1073.56 1.90192 1073.56 1.9015C1073.56 1.90108 1073.56 1.90067 1073.56 1.90025C1073.56 1.89984 1073.56 1.89943 1073.56 1.89901C1073.56 1.8986 1073.56 1.89818 1073.56 1.89777C1073.56 1.89736 1073.56 1.89694 1073.56 1.89653C1073.56 1.89612 1073.56 1.89571 1073.56 1.89529C1073.56 1.89488 1073.56 1.89447 1073.56 1.89406C1073.56 1.89365 1073.56 1.89324 1073.56 1.89283C1073.56 1.89241 1073.56 1.892 1073.56 1.89159C1073.56 1.89118 1073.56 1.89077 1073.56 1.89036C1073.56 1.88995 1073.56 1.88955 1073.56 1.88914C1073.56 1.88873 1073.56 1.88832 1073.56 1.88791C1073.56 1.8875 1073.56 1.88709 1073.56 1.88669C1073.56 1.88628 1073.56 1.88587 1073.56 1.88547C1073.56 1.88506 1073.56 1.88465 1073.56 1.88425C1073.56 1.88384 1073.56 1.88343 1073.56 1.88303C1073.56 1.88262 1073.56 1.88222 1073.56 1.88181C1073.56 1.88141 1073.56 1.881 1073.56 1.8806C1073.56 1.88019 1073.56 1.87979 1073.56 1.87939C1073.56 1.87898 1073.56 1.87858 1073.56 1.87818C1073.56 1.87777 1073.56 1.87737 1073.56 1.87697C1073.56 1.87657 1073.56 1.87616 1073.56 1.87576C1073.56 1.87536 1073.56 1.87496 1073.56 1.87456C1073.56 1.87416 1073.56 1.87376 1073.56 1.87336C1073.56 1.87296 1073.56 1.87256 1073.56 1.87216C1073.56 1.87176 1073.56 1.87136 1073.56 1.87096C1073.56 1.87056 1073.56 1.87016 1073.56 1.86976C1073.56 1.86936 1073.56 1.86896 1073.56 1.86857C1073.56 1.86817 1073.56 1.86777 1073.56 1.86737C1073.56 1.86698 1073.56 1.86658 1073.56 1.86618C1073.56 1.86579 1073.56 1.86539 1073.56 1.865C1073.56 1.8646 1073.56 1.8642 1073.56 1.86381C1073.56 1.86341 1073.56 1.86302 1073.56 1.86262C1073.56 1.86223 1073.56 1.86184 1073.56 1.86144C1073.56 1.86105 1073.56 1.86065 1073.56 1.86026C1073.56 1.85987 1073.56 1.85948 1073.56 1.85908C1073.56 1.85869 1073.56 1.8583 1073.56 1.85791C1073.56 1.85751 1073.56 1.85712 1073.56 1.85673C1073.56 1.85634 1073.56 1.85595 1073.56 1.85556C1073.56 1.85517 1073.56 1.85478 1073.56 1.85439C1073.56 1.854 1073.56 1.85361 1073.56 1.85322C1073.56 1.85283 1073.56 1.85244 1073.56 1.85205C1073.56 1.85166 1073.56 1.85127 1073.56 1.85089C1073.56 1.8505 1073.56 1.85011 1073.56 1.84972C1073.56 1.84934 1073.56 1.84895 1073.56 1.84856C1073.56 1.84818 1073.56 1.84779 1073.56 1.8474C1073.56 1.84702 1073.56 1.84663 1073.56 1.84625C1073.56 1.84586 1073.56 1.84548 1073.56 1.84509C1073.56 1.84471 1073.56 1.84432 1073.56 1.84394C1073.56 1.84355 1073.56 1.84317 1073.56 1.84279C1073.56 1.8424 1073.56 1.84202 1073.56 1.84164C1073.56 1.84125 1073.56 1.84087 1073.56 1.84049C1073.56 1.84011 1073.56 1.83972 1073.56 1.83934C1073.56 1.83896 1073.56 1.83858 1073.56 1.8382C1073.56 1.83782 1073.56 1.83744 1073.56 1.83706C1073.56 1.83668 1073.56 1.8363 1073.56 1.83592C1073.56 1.83554 1073.56 1.83516 1073.56 1.83478C1073.56 1.8344 1073.56 1.83402 1073.56 1.83364C1073.56 1.83327 1073.56 1.83289 1073.56 1.83251C1073.56 1.83213 1073.56 1.83176 1073.56 1.83138C1073.56 1.831 1073.56 1.83063 1073.56 1.83025C1073.56 1.82987 1073.56 1.8295 1073.56 1.82912C1073.56 1.82875 1073.56 1.82837 1073.56 1.828C1073.56 1.82762 1073.56 1.82725 1073.56 1.82687C1073.56 1.8265 1073.56 1.82612 1073.56 1.82575C1073.56 1.82538 1073.56 1.825 1073.56 1.82463C1073.56 1.82426 1073.56 1.82388 1073.56 1.82351C1073.56 1.82314 1073.56 1.82277 1073.56 1.82239C1073.56 1.82202 1073.56 1.82165 1073.56 1.82128C1073.56 1.82091 1073.56 1.82054 1073.56 1.82017C1073.56 1.8198 1073.56 1.81943 1073.56 1.81906C1073.56 1.81869 1073.56 1.81832 1073.56 1.81795C1073.56 1.81758 1073.56 1.81721 1073.56 1.81684C1073.56 1.81647 1073.56 1.81611 1073.56 1.81574C1073.56 1.81537 1073.56 1.815 1073.56 1.81464C1073.56 1.81427 1073.56 1.8139 1073.56 1.81354C1073.56 1.81317 1073.56 1.8128 1073.56 1.81244C1073.56 1.81207 1073.56 1.81171 1073.56 1.81134C1073.56 1.81097 1073.56 1.81061 1073.56 1.81025C1073.56 1.80988 1073.56 1.80952 1073.56 1.80915C1073.56 1.80879 1073.56 1.80842 1073.56 1.80806C1073.56 1.8077 1073.56 1.80734 1073.56 1.80697C1073.56 1.80661 1073.56 1.80625 1073.56 1.80589C1073.56 1.80552 1073.56 1.80516 1073.56 1.8048C1073.56 1.80444 1073.56 1.80408 1073.56 1.80372C1073.56 1.80336 1073.56 1.803 1073.56 1.80264C1073.56 1.80228 1073.56 1.80192 1073.56 1.80156C1073.56 1.8012 1073.56 1.80084 1073.56 1.80048C1073.56 1.80012 1073.56 1.79976 1073.56 1.79941C1073.56 1.79905 1073.56 1.79869 1073.56 1.79833C1073.56 1.79797 1073.56 1.79762 1073.56 1.79726C1073.56 1.7969 1073.56 1.79655 1073.56 1.79619C1073.56 1.79584 1073.56 1.79548 1073.56 1.79512C1073.56 1.79477 1073.56 1.79441 1073.56 1.79406C1073.56 1.7937 1073.56 1.79335 1073.56 1.79299C1073.56 1.79264 1073.56 1.79229 1073.56 1.79193C1073.56 1.79158 1073.56 1.79123 1073.56 1.79087C1073.56 1.79052 1073.56 1.79017 1073.56 1.78982C1073.56 1.78946 1073.56 1.78911 1073.56 1.78876C1073.56 1.78841 1073.56 1.78806 1073.56 1.78771C1073.56 1.78736 1073.56 1.78701 1073.56 1.78666C1073.56 1.7863 1073.56 1.78595 1073.56 1.78561C1073.56 1.78526 1073.56 1.78491 1073.56 1.78456C1073.56 1.78421 1073.56 1.78386 1073.56 1.78351C1073.56 1.78316 1073.56 1.78282 1073.56 1.78247C1073.56 1.78212 1073.56 1.78177 1073.56 1.78143C1073.56 1.78108 1073.56 1.78073 1073.56 1.78039C1073.56 1.78004 1073.56 1.77969 1073.56 1.77935C1073.56 1.779 1073.56 1.77866 1073.56 1.77831C1073.56 1.77797 1073.56 1.77762 1073.56 1.77728C1073.56 1.77693 1073.56 1.77659 1073.56 1.77624C1073.56 1.7759 1073.56 1.77556 1073.56 1.77521C1073.56 1.77487 1073.56 1.77453 1073.56 1.77419C1073.56 1.77384 1073.56 1.7735 1073.56 1.77316C1073.56 1.77282 1073.56 1.77248 1073.56 1.77214C1073.56 1.77179 1073.56 1.77145 1073.56 1.77111C1073.56 1.77077 1073.56 1.77043 1073.56 1.77009C1073.56 1.76975 1073.56 1.76941 1073.56 1.76907C1073.56 1.76873 1073.56 1.7684 1073.56 1.76806C1073.56 1.76772 1073.56 1.76738 1073.56 1.76704C1073.56 1.7667 1073.56 1.76637 1073.56 1.76603C1073.56 1.76569 1073.56 1.76536 1073.56 1.76502C1073.56 1.76468 1073.56 1.76435 1073.56 1.76401C1073.56 1.76367 1073.56 1.76334 1073.56 1.763C1073.56 1.76267 1073.56 1.76233 1073.56 1.762C1073.56 1.76166 1073.56 1.76133 1073.56 1.761C1073.56 1.76066 1073.56 1.76033 1073.56 1.75999H1072.56C1072.56 1.76033 1072.56 1.76066 1072.56 1.761C1072.56 1.76133 1072.56 1.76166 1072.56 1.762C1072.56 1.76233 1072.56 1.76267 1072.56 1.763C1072.56 1.76334 1072.56 1.76367 1072.56 1.76401C1072.56 1.76435 1072.56 1.76468 1072.56 1.76502C1072.56 1.76536 1072.56 1.76569 1072.56 1.76603C1072.56 1.76637 1072.56 1.7667 1072.56 1.76704C1072.56 1.76738 1072.56 1.76772 1072.56 1.76806C1072.56 1.7684 1072.56 1.76873 1072.56 1.76907C1072.56 1.76941 1072.56 1.76975 1072.56 1.77009C1072.56 1.77043 1072.56 1.77077 1072.56 1.77111C1072.56 1.77145 1072.56 1.77179 1072.56 1.77214C1072.56 1.77248 1072.56 1.77282 1072.56 1.77316C1072.56 1.7735 1072.56 1.77384 1072.56 1.77419C1072.56 1.77453 1072.56 1.77487 1072.56 1.77521C1072.56 1.77556 1072.56 1.7759 1072.56 1.77624C1072.56 1.77659 1072.56 1.77693 1072.56 1.77728C1072.56 1.77762 1072.56 1.77797 1072.56 1.77831C1072.56 1.77866 1072.56 1.779 1072.56 1.77935C1072.56 1.77969 1072.56 1.78004 1072.56 1.78039C1072.56 1.78073 1072.56 1.78108 1072.56 1.78143C1072.56 1.78177 1072.56 1.78212 1072.56 1.78247C1072.56 1.78282 1072.56 1.78316 1072.56 1.78351C1072.56 1.78386 1072.56 1.78421 1072.56 1.78456C1072.56 1.78491 1072.56 1.78526 1072.56 1.78561C1072.56 1.78595 1072.56 1.7863 1072.56 1.78666C1072.56 1.78701 1072.56 1.78736 1072.56 1.78771C1072.56 1.78806 1072.56 1.78841 1072.56 1.78876C1072.56 1.78911 1072.56 1.78946 1072.56 1.78982C1072.56 1.79017 1072.56 1.79052 1072.56 1.79087C1072.56 1.79123 1072.56 1.79158 1072.56 1.79193C1072.56 1.79229 1072.56 1.79264 1072.56 1.79299C1072.56 1.79335 1072.56 1.7937 1072.56 1.79406C1072.56 1.79441 1072.56 1.79477 1072.56 1.79512C1072.56 1.79548 1072.56 1.79584 1072.56 1.79619C1072.56 1.79655 1072.56 1.7969 1072.56 1.79726C1072.56 1.79762 1072.56 1.79797 1072.56 1.79833C1072.56 1.79869 1072.56 1.79905 1072.56 1.79941C1072.56 1.79976 1072.56 1.80012 1072.56 1.80048C1072.56 1.80084 1072.56 1.8012 1072.56 1.80156C1072.56 1.80192 1072.56 1.80228 1072.56 1.80264C1072.56 1.803 1072.56 1.80336 1072.56 1.80372C1072.56 1.80408 1072.56 1.80444 1072.56 1.8048C1072.56 1.80516 1072.56 1.80552 1072.56 1.80589C1072.56 1.80625 1072.56 1.80661 1072.56 1.80697C1072.56 1.80734 1072.56 1.8077 1072.56 1.80806C1072.56 1.80842 1072.56 1.80879 1072.56 1.80915C1072.56 1.80952 1072.56 1.80988 1072.56 1.81025C1072.56 1.81061 1072.56 1.81097 1072.56 1.81134C1072.56 1.81171 1072.56 1.81207 1072.56 1.81244C1072.56 1.8128 1072.56 1.81317 1072.56 1.81354C1072.56 1.8139 1072.56 1.81427 1072.56 1.81464C1072.56 1.815 1072.56 1.81537 1072.56 1.81574C1072.56 1.81611 1072.56 1.81647 1072.56 1.81684C1072.56 1.81721 1072.56 1.81758 1072.56 1.81795C1072.56 1.81832 1072.56 1.81869 1072.56 1.81906C1072.56 1.81943 1072.56 1.8198 1072.56 1.82017C1072.56 1.82054 1072.56 1.82091 1072.56 1.82128C1072.56 1.82165 1072.56 1.82202 1072.56 1.82239C1072.56 1.82277 1072.56 1.82314 1072.56 1.82351C1072.56 1.82388 1072.56 1.82426 1072.56 1.82463C1072.56 1.825 1072.56 1.82538 1072.56 1.82575C1072.56 1.82612 1072.56 1.8265 1072.56 1.82687C1072.56 1.82725 1072.56 1.82762 1072.56 1.828C1072.56 1.82837 1072.56 1.82875 1072.56 1.82912C1072.56 1.8295 1072.56 1.82987 1072.56 1.83025C1072.56 1.83063 1072.56 1.831 1072.56 1.83138C1072.56 1.83176 1072.56 1.83213 1072.56 1.83251C1072.56 1.83289 1072.56 1.83327 1072.56 1.83364C1072.56 1.83402 1072.56 1.8344 1072.56 1.83478C1072.56 1.83516 1072.56 1.83554 1072.56 1.83592C1072.56 1.8363 1072.56 1.83668 1072.56 1.83706C1072.56 1.83744 1072.56 1.83782 1072.56 1.8382C1072.56 1.83858 1072.56 1.83896 1072.56 1.83934C1072.56 1.83972 1072.56 1.84011 1072.56 1.84049C1072.56 1.84087 1072.56 1.84125 1072.56 1.84164C1072.56 1.84202 1072.56 1.8424 1072.56 1.84279C1072.56 1.84317 1072.56 1.84355 1072.56 1.84394C1072.56 1.84432 1072.56 1.84471 1072.56 1.84509C1072.56 1.84548 1072.56 1.84586 1072.56 1.84625C1072.56 1.84663 1072.56 1.84702 1072.56 1.8474C1072.56 1.84779 1072.56 1.84818 1072.56 1.84856C1072.56 1.84895 1072.56 1.84934 1072.56 1.84972C1072.56 1.85011 1072.56 1.8505 1072.56 1.85089C1072.56 1.85127 1072.56 1.85166 1072.56 1.85205C1072.56 1.85244 1072.56 1.85283 1072.56 1.85322C1072.56 1.85361 1072.56 1.854 1072.56 1.85439C1072.56 1.85478 1072.56 1.85517 1072.56 1.85556C1072.56 1.85595 1072.56 1.85634 1072.56 1.85673C1072.56 1.85712 1072.56 1.85751 1072.56 1.85791C1072.56 1.8583 1072.56 1.85869 1072.56 1.85908C1072.56 1.85948 1072.56 1.85987 1072.56 1.86026C1072.56 1.86065 1072.56 1.86105 1072.56 1.86144C1072.56 1.86184 1072.56 1.86223 1072.56 1.86262C1072.56 1.86302 1072.56 1.86341 1072.56 1.86381C1072.56 1.8642 1072.56 1.8646 1072.56 1.865C1072.56 1.86539 1072.56 1.86579 1072.56 1.86618C1072.56 1.86658 1072.56 1.86698 1072.56 1.86737C1072.56 1.86777 1072.56 1.86817 1072.56 1.86857C1072.56 1.86896 1072.56 1.86936 1072.56 1.86976C1072.56 1.87016 1072.56 1.87056 1072.56 1.87096C1072.56 1.87136 1072.56 1.87176 1072.56 1.87216C1072.56 1.87256 1072.56 1.87296 1072.56 1.87336C1072.56 1.87376 1072.56 1.87416 1072.56 1.87456C1072.56 1.87496 1072.56 1.87536 1072.56 1.87576C1072.56 1.87616 1072.56 1.87657 1072.56 1.87697C1072.56 1.87737 1072.56 1.87777 1072.56 1.87818C1072.56 1.87858 1072.56 1.87898 1072.56 1.87939C1072.56 1.87979 1072.56 1.88019 1072.56 1.8806C1072.56 1.881 1072.56 1.88141 1072.56 1.88181C1072.56 1.88222 1072.56 1.88262 1072.56 1.88303C1072.56 1.88343 1072.56 1.88384 1072.56 1.88425C1072.56 1.88465 1072.56 1.88506 1072.56 1.88547C1072.56 1.88587 1072.56 1.88628 1072.56 1.88669C1072.56 1.88709 1072.56 1.8875 1072.56 1.88791C1072.56 1.88832 1072.56 1.88873 1072.56 1.88914C1072.56 1.88955 1072.56 1.88995 1072.56 1.89036C1072.56 1.89077 1072.56 1.89118 1072.56 1.89159C1072.56 1.892 1072.56 1.89241 1072.56 1.89283C1072.56 1.89324 1072.56 1.89365 1072.56 1.89406C1072.56 1.89447 1072.56 1.89488 1072.56 1.89529C1072.56 1.89571 1072.56 1.89612 1072.56 1.89653C1072.56 1.89694 1072.56 1.89736 1072.56 1.89777C1072.56 1.89818 1072.56 1.8986 1072.56 1.89901C1072.56 1.89943 1072.56 1.89984 1072.56 1.90025C1072.56 1.90067 1072.56 1.90108 1072.56 1.9015C1072.56 1.90192 1072.56 1.90233 1072.56 1.90275C1072.56 1.90316 1072.56 1.90358 1072.56 1.904C1072.56 1.90441 1072.56 1.90483 1072.56 1.90525C1072.56 1.90566 1072.56 1.90608 1072.56 1.9065C1072.56 1.90692 1072.56 1.90734 1072.56 1.90775C1072.56 1.90817 1072.56 1.90859 1072.56 1.90901C1072.56 1.90943 1072.56 1.90985 1072.56 1.91027C1072.56 1.91069 1072.56 1.91111 1072.56 1.91153C1072.56 1.91195 1072.56 1.91237 1072.56 1.91279C1072.56 1.91322 1072.56 1.91364 1072.56 1.91406C1072.56 1.91448 1072.56 1.9149 1072.56 1.91533C1072.56 1.91575 1072.56 1.91617 1072.56 1.91659C1072.56 1.91702 1072.56 1.91744 1072.56 1.91786C1072.56 1.91829 1072.56 1.91871 1072.56 1.91914C1072.56 1.91956 1072.56 1.91999 1072.56 1.92041C1072.56 1.92084 1072.56 1.92126 1072.56 1.92169C1072.56 1.92211 1072.56 1.92254 1072.56 1.92297C1072.56 1.92339 1072.56 1.92382 1072.56 1.92425C1072.56 1.92467 1072.56 1.9251 1072.56 1.92553C1072.56 1.92596 1072.56 1.92638 1072.56 1.92681C1072.56 1.92724 1072.56 1.92767 1072.56 1.9281C1072.56 1.92853 1072.56 1.92896 1072.56 1.92939C1072.56 1.92982 1072.56 1.93025 1072.56 1.93068C1072.56 1.93111 1072.56 1.93154 1072.56 1.93197C1072.56 1.9324 1072.56 1.93283 1072.56 1.93326C1072.56 1.93369 1072.56 1.93413 1072.56 1.93456C1072.56 1.93499 1072.56 1.93542 1072.56 1.93586C1072.56 1.93629 1072.56 1.93672 1072.56 1.93716C1072.56 1.93759 1072.56 1.93802 1072.56 1.93846C1072.56 1.93889 1072.56 1.93933 1072.56 1.93976C1072.56 1.9402 1072.56 1.94063 1072.56 1.94107C1072.56 1.9415 1072.56 1.94194 1072.56 1.94237C1072.56 1.94281 1072.56 1.94325 1072.56 1.94368C1072.56 1.94412 1072.56 1.94456 1072.56 1.945C1072.56 1.94543 1072.56 1.94587 1072.56 1.94631C1072.56 1.94675 1072.56 1.94719 1072.56 1.94763C1072.56 1.94806 1072.56 1.9485 1072.56 1.94894C1072.56 1.94938 1072.56 1.94982 1072.56 1.95026C1072.56 1.9507 1072.56 1.95114 1072.56 1.95158C1072.56 1.95202 1072.56 1.95246 1072.56 1.95291C1072.56 1.95335 1072.56 1.95379 1072.56 1.95423C1072.56 1.95467 1072.56 1.95512 1072.56 1.95556C1072.56 1.956 1072.56 1.95644 1072.56 1.95689C1072.56 1.95733 1072.56 1.95777 1072.56 1.95822C1072.56 1.95866 1072.56 1.95911 1072.56 1.95955C1072.56 1.96 1072.56 1.96044 1072.56 1.96089C1072.56 1.96133 1072.56 1.96178 1072.56 1.96222C1072.56 1.96267 1072.56 1.96312 1072.56 1.96356C1072.56 1.96401 1072.56 1.96446 1072.56 1.9649C1072.56 1.96535 1072.56 1.9658 1072.56 1.96625C1072.56 1.96669 1072.56 1.96714 1072.56 1.96759C1072.56 1.96804 1072.56 1.96849 1072.56 1.96894C1072.56 1.96939 1072.56 1.96984 1072.56 1.97029C1072.56 1.97074 1072.56 1.97119 1072.56 1.97164C1072.56 1.97209 1072.56 1.97254 1072.56 1.97299C1072.56 1.97344 1072.56 1.97389 1072.56 1.97434C1072.56 1.9748 1072.56 1.97525 1072.56 1.9757C1072.56 1.97615 1072.56 1.97661 1072.56 1.97706C1072.56 1.97751 1072.56 1.97797 1072.56 1.97842C1072.56 1.97887 1072.56 1.97933 1072.56 1.97978C1072.56 1.98024 1072.56 1.98069 1072.56 1.98115C1072.56 1.9816 1072.56 1.98206 1072.56 1.98251C1072.56 1.98297 1072.56 1.98342 1072.56 1.98388C1072.56 1.98434 1072.56 1.98479 1072.56 1.98525C1072.56 1.98571 1072.56 1.98616 1072.56 1.98662C1072.56 1.98708 1072.56 1.98754 1072.56 1.988C1072.56 1.98845 1072.56 1.98891 1072.56 1.98937C1072.56 1.98983 1072.56 1.99029 1072.56 1.99075C1072.56 1.99121 1072.56 1.99167 1072.56 1.99213C1072.56 1.99259 1072.56 1.99305 1072.56 1.99351C1072.56 1.99397 1072.56 1.99443 1072.56 1.9949C1072.56 1.99536 1072.56 1.99582 1072.56 1.99628C1072.56 1.99674 1072.56 1.99721 1072.56 1.99767C1072.56 1.99813 1072.56 1.9986 1072.56 1.99906C1072.56 1.99952 1072.56 1.99999 1072.56 2.00045C1072.56 2.00091 1072.56 2.00138 1072.56 2.00184C1072.56 2.00231 1072.56 2.00277 1072.56 2.00324C1072.56 2.00371 1072.56 2.00417 1072.56 2.00464C1072.56 2.0051 1072.56 2.00557 1072.56 2.00604C1072.56 2.0065 1072.56 2.00697 1072.56 2.00744C1072.56 2.00791 1072.56 2.00837 1072.56 2.00884C1072.56 2.00931 1072.56 2.00978 1072.56 2.01025C1072.56 2.01072 1072.56 2.01118 1072.56 2.01165C1072.56 2.01212 1072.56 2.01259 1072.56 2.01306C1072.56 2.01353 1072.56 2.014 1072.56 2.01447C1072.56 2.01494 1072.56 2.01542 1072.56 2.01589C1072.56 2.01636 1072.56 2.01683 1072.56 2.0173C1072.56 2.01777 1072.56 2.01825 1072.56 2.01872C1072.56 2.01919 1072.56 2.01966 1072.56 2.02014C1072.56 2.02061 1072.56 2.02108 1072.56 2.02156C1072.56 2.02203 1072.56 2.02251 1072.56 2.02298C1072.56 2.02346 1072.56 2.02393 1072.56 2.02441C1072.56 2.02488 1072.56 2.02536 1072.56 2.02583C1072.56 2.02631 1072.56 2.02679 1072.56 2.02726C1072.56 2.02774 1072.56 2.02822 1072.56 2.02869C1072.56 2.02917 1072.56 2.02965 1072.56 2.03013C1072.56 2.0306 1072.56 2.03108 1072.56 2.03156C1072.56 2.03204 1072.56 2.03252 1072.56 2.033C1072.56 2.03348 1072.56 2.03396 1072.56 2.03443C1072.56 2.03491 1072.56 2.03539 1072.56 2.03588C1072.56 2.03636 1072.56 2.03684 1072.56 2.03732C1072.56 2.0378 1072.56 2.03828 1072.56 2.03876C1072.56 2.03924 1072.56 2.03973 1072.56 2.04021C1072.56 2.04069 1072.56 2.04117 1072.56 2.04166C1072.56 2.04214 1072.56 2.04262 1072.56 2.04311C1072.56 2.04359 1072.56 2.04407 1072.56 2.04456C1072.56 2.04504 1072.56 2.04553 1072.56 2.04601C1072.56 2.0465 1072.56 2.04698 1072.56 2.04747C1072.56 2.04795 1072.56 2.04844 1072.56 2.04893C1072.56 2.04941 1072.56 2.0499 1072.56 2.05039C1072.56 2.05087 1072.56 2.05136 1072.56 2.05185C1072.56 2.05234 1072.56 2.05282 1072.56 2.05331C1072.56 2.0538 1072.56 2.05429 1072.56 2.05478C1072.56 2.05527 1072.56 2.05576 1072.56 2.05625C1072.56 2.05674 1072.56 2.05723 1072.56 2.05772C1072.56 2.05821 1072.56 2.0587 1072.56 2.05919C1072.56 2.05968 1072.56 2.06017 1072.56 2.06066C1072.56 2.06115 1072.56 2.06164 1072.56 2.06214C1072.56 2.06263 1072.56 2.06312 1072.56 2.06361C1072.56 2.06411 1072.56 2.0646 1072.56 2.06509C1072.56 2.06559 1072.56 2.06608 1072.56 2.06658C1072.56 2.06707 1072.56 2.06756 1072.56 2.06806C1072.56 2.06855 1072.56 2.06905 1072.56 2.06954C1072.56 2.07004 1072.56 2.07054 1072.56 2.07103C1072.56 2.07153 1072.56 2.07202 1072.56 2.07252C1072.56 2.07302 1072.56 2.07351 1072.56 2.07401C1072.56 2.07451 1072.56 2.07501 1072.56 2.0755C1072.56 2.076 1072.56 2.0765 1072.56 2.077C1072.56 2.0775 1072.56 2.078 1072.56 2.0785C1072.56 2.079 1072.56 2.0795 1072.56 2.08C1072.56 2.0805 1072.56 2.081 1072.56 2.0815C1072.56 2.082 1072.56 2.0825 1072.56 2.083C1072.56 2.0835 1072.56 2.084 1072.56 2.08451C1072.56 2.08501 1072.56 2.08551 1072.56 2.08601C1072.56 2.08651 1072.56 2.08702 1072.56 2.08752C1072.56 2.08802 1072.56 2.08853 1072.56 2.08903C1072.56 2.08954 1072.56 2.09004 1072.56 2.09054C1072.56 2.09105 1072.56 2.09155 1072.56 2.09206C1072.56 2.09256 1072.56 2.09307 1072.56 2.09358C1072.56 2.09408 1072.56 2.09459 1072.56 2.09509C1072.56 2.0956 1072.56 2.09611 1072.56 2.09661C1072.56 2.09712 1072.56 2.09763 1072.56 2.09814C1072.56 2.09864 1072.56 2.09915 1072.56 2.09966C1072.56 2.10017 1072.56 2.10068 1072.56 2.10119C1072.56 2.1017 1072.56 2.10221 1072.56 2.10272C1072.56 2.10323 1072.56 2.10374 1072.56 2.10425C1072.56 2.10476 1072.56 2.10527 1072.56 2.10578C1072.56 2.10629 1072.56 2.1068 1072.56 2.10731C1072.56 2.10782 1072.56 2.10834 1072.56 2.10885C1072.56 2.10936 1072.56 2.10987 1072.56 2.11039C1072.56 2.1109 1072.56 2.11141 1072.56 2.11193C1072.56 2.11244 1072.56 2.11295 1072.56 2.11347C1072.56 2.11398 1072.56 2.1145 1072.56 2.11501C1072.56 2.11553 1072.56 2.11604 1072.56 2.11656C1072.56 2.11707 1072.56 2.11759 1072.56 2.11811C1072.56 2.11862 1072.56 2.11914 1072.56 2.11966C1072.56 2.12017 1072.56 2.12069 1072.56 2.12121C1072.56 2.12173 1072.56 2.12224 1072.56 2.12276C1072.56 2.12328 1072.56 2.1238 1072.56 2.12432C1072.56 2.12484 1072.56 2.12536 1072.56 2.12587C1072.56 2.12639 1072.56 2.12691 1072.56 2.12743C1072.56 2.12795 1072.56 2.12848 1072.56 2.129C1072.56 2.12952 1072.56 2.13004 1072.56 2.13056C1072.56 2.13108 1072.56 2.1316 1072.56 2.13212C1072.56 2.13265 1072.56 2.13317 1072.56 2.13369C1072.56 2.13421 1072.56 2.13474 1072.56 2.13526C1072.56 2.13579 1072.56 2.13631 1072.56 2.13683C1072.56 2.13736 1072.56 2.13788 1072.56 2.13841C1072.56 2.13893 1072.56 2.13946 1072.56 2.13998C1072.56 2.14051 1072.56 2.14103 1072.56 2.14156C1072.56 2.14208 1072.56 2.14261 1072.56 2.14314C1072.56 2.14366 1072.56 2.14419 1072.56 2.14472C1072.56 2.14525 1072.56 2.14577 1072.56 2.1463C1072.56 2.14683 1072.56 2.14736 1072.56 2.14789C1072.56 2.14842 1072.56 2.14894 1072.56 2.14947C1072.56 2.15 1072.56 2.15053 1072.56 2.15106C1072.56 2.15159 1072.56 2.15212 1072.56 2.15265C1072.56 2.15318 1072.56 2.15371 1072.56 2.15425C1072.56 2.15478 1072.56 2.15531 1072.56 2.15584C1072.56 2.15637 1072.56 2.1569 1072.56 2.15744C1072.56 2.15797 1072.56 2.1585 1072.56 2.15904C1072.56 2.15957 1072.56 2.1601 1072.56 2.16064C1072.56 2.16117 1072.56 2.1617 1072.56 2.16224C1072.56 2.16277 1072.56 2.16331 1072.56 2.16384C1072.56 2.16438 1072.56 2.16491 1072.56 2.16545C1072.56 2.16599 1072.56 2.16652 1072.56 2.16706C1072.56 2.16759 1072.56 2.16813 1072.56 2.16867C1072.56 2.16921 1072.56 2.16974 1072.56 2.17028C1072.56 2.17082 1072.56 2.17136 1072.56 2.1719C1072.56 2.17243 1072.56 2.17297 1072.56 2.17351C1072.56 2.17405 1072.56 2.17459 1072.56 2.17513C1072.56 2.17567 1072.56 2.17621 1072.56 2.17675C1072.56 2.17729 1072.56 2.17783 1072.56 2.17837C1072.56 2.17891 1072.56 2.17945 1072.56 2.18C1072.56 2.18054 1072.56 2.18108 1072.56 2.18162C1072.56 2.18216 1072.56 2.18271 1072.56 2.18325C1072.56 2.18379 1072.56 2.18434 1072.56 2.18488C1072.56 2.18542 1072.56 2.18597 1072.56 2.18651C1072.56 2.18706 1072.56 2.1876 1072.56 2.18815C1072.56 2.18869 1072.56 2.18924 1072.56 2.18978C1072.56 2.19033 1072.56 2.19087 1072.56 2.19142C1072.56 2.19196 1072.56 2.19251 1072.56 2.19306C1072.56 2.1936 1072.56 2.19415 1072.56 2.1947C1072.56 2.19525 1072.56 2.1958 1072.56 2.19634C1072.56 2.19689 1072.56 2.19744 1072.56 2.19799C1072.56 2.19854 1072.56 2.19909 1072.56 2.19964C1072.56 2.20019 1072.56 2.20074 1072.56 2.20129C1072.56 2.20184 1072.56 2.20239 1072.56 2.20294C1072.56 2.20349 1072.56 2.20404 1072.56 2.20459C1072.56 2.20514 1072.56 2.20569 1072.56 2.20625C1072.56 2.2068 1072.56 2.20735 1072.56 2.2079C1072.56 2.20846 1072.56 2.20901 1072.56 2.20956C1072.56 2.21012 1072.56 2.21067 1072.56 2.21122C1072.56 2.21178 1072.56 2.21233 1072.56 2.21289C1072.56 2.21344 1072.56 2.214 1072.56 2.21455C1072.56 2.21511 1072.56 2.21566 1072.56 2.21622C1072.56 2.21677 1072.56 2.21733 1072.56 2.21789C1072.56 2.21844 1072.56 2.219 1072.56 2.21956C1072.56 2.22012 1072.56 2.22067 1072.56 2.22123C1072.56 2.22179 1072.56 2.22235 1072.56 2.22291C1072.56 2.22346 1072.56 2.22402 1072.56 2.22458C1072.56 2.22514 1072.56 2.2257 1072.56 2.22626C1072.56 2.22682 1072.56 2.22738 1072.56 2.22794C1072.56 2.2285 1072.56 2.22906 1072.56 2.22962C1072.56 2.23019 1072.56 2.23075 1072.56 2.23131C1072.56 2.23187 1072.56 2.23243 1072.56 2.233C1072.56 2.23356 1072.56 2.23412 1072.56 2.23468C1072.56 2.23525 1072.56 2.23581 1072.56 2.23637C1072.56 2.23694 1072.56 2.2375 1072.56 2.23807C1072.56 2.23863 1072.56 2.2392 1072.56 2.23976C1072.56 2.24033 1072.56 2.24089 1072.56 2.24146C1072.56 2.24202 1072.56 2.24259 1072.56 2.24316C1072.56 2.24372 1072.56 2.24429 1072.56 2.24486C1072.56 2.24542 1072.56 2.24599 1072.56 2.24656C1072.56 2.24713 1072.56 2.24769 1072.56 2.24826C1072.56 2.24883 1072.56 2.2494 1072.56 2.24997C1072.56 2.25054 1072.56 2.25111 1072.56 2.25168C1072.56 2.25225 1072.56 2.25282 1072.56 2.25339C1072.56 2.25396 1072.56 2.25453 1072.56 2.2551C1072.56 2.25567 1072.56 2.25624 1072.56 2.25681C1072.56 2.25738 1072.56 2.25796 1072.56 2.25853C1072.56 2.2591 1072.56 2.25967 1072.56 2.26025C1072.56 2.26082 1072.56 2.26139 1072.56 2.26196C1072.56 2.26254 1072.56 2.26311 1072.56 2.26369C1072.56 2.26426 1072.56 2.26484 1072.56 2.26541C1072.56 2.26599 1072.56 2.26656 1072.56 2.26714C1072.56 2.26771 1072.56 2.26829 1072.56 2.26886C1072.56 2.26944 1072.56 2.27002 1072.56 2.27059C1072.56 2.27117 1072.56 2.27175 1072.56 2.27232C1072.56 2.2729 1072.56 2.27348 1072.56 2.27406C1072.56 2.27464 1072.56 2.27521 1072.56 2.27579C1072.56 2.27637 1072.56 2.27695 1072.56 2.27753C1072.56 2.27811 1072.56 2.27869 1072.56 2.27927C1072.56 2.27985 1072.56 2.28043 1072.56 2.28101C1072.56 2.28159 1072.56 2.28217 1072.56 2.28275C1072.56 2.28334 1072.56 2.28392 1072.56 2.2845C1072.56 2.28508 1072.56 2.28566 1072.56 2.28625C1072.56 2.28683 1072.56 2.28741 1072.56 2.28799C1072.56 2.28858 1072.56 2.28916 1072.56 2.28975C1072.56 2.29033 1072.56 2.29091 1072.56 2.2915C1072.56 2.29208 1072.56 2.29267 1072.56 2.29325C1072.56 2.29384 1072.56 2.29442 1072.56 2.29501C1072.56 2.2956 1072.56 2.29618 1072.56 2.29677C1072.56 2.29736 1072.56 2.29794 1072.56 2.29853C1072.56 2.29912 1072.56 2.2997 1072.56 2.30029C1072.56 2.30088 1072.56 2.30147 1072.56 2.30206C1072.56 2.30265 1072.56 2.30323 1072.56 2.30382C1072.56 2.30441 1072.56 2.305 1072.56 2.30559C1072.56 2.30618 1072.56 2.30677 1072.56 2.30736C1072.56 2.30795 1072.56 2.30854 1072.56 2.30914C1072.56 2.30973 1072.56 2.31032 1072.56 2.31091C1072.56 2.3115 1072.56 2.31209 1072.56 2.31269C1072.56 2.31328 1072.56 2.31387 1072.56 2.31446C1072.56 2.31506 1072.56 2.31565 1072.56 2.31624C1072.56 2.31684 1072.56 2.31743 1072.56 2.31803C1072.56 2.31862 1072.56 2.31922 1072.56 2.31981C1072.56 2.32041 1072.56 2.321 1072.56 2.3216C1072.56 2.32219 1072.56 2.32279 1072.56 2.32339C1072.56 2.32398 1072.56 2.32458 1072.56 2.32518C1072.56 2.32577 1072.56 2.32637 1072.56 2.32697C1072.56 2.32756 1072.56 2.32816 1072.56 2.32876C1072.56 2.32936 1072.56 2.32996 1072.56 2.33056C1072.56 2.33116 1072.56 2.33176 1072.56 2.33236C1072.56 2.33295 1072.56 2.33355 1072.56 2.33415C1072.56 2.33475 1072.56 2.33536 1072.56 2.33596C1072.56 2.33656 1072.56 2.33716 1072.56 2.33776C1072.56 2.33836 1072.56 2.33896 1072.56 2.33957C1072.56 2.34017 1072.56 2.34077 1072.56 2.34137C1072.56 2.34198 1072.56 2.34258 1072.56 2.34318C1072.56 2.34379 1072.56 2.34439 1072.56 2.34499C1072.56 2.3456 1072.56 2.3462 1072.56 2.34681C1072.56 2.34741 1072.56 2.34802 1072.56 2.34862C1072.56 2.34923 1072.56 2.34983 1072.56 2.35044C1072.56 2.35105 1072.56 2.35165 1072.56 2.35226C1072.56 2.35287 1072.56 2.35347 1072.56 2.35408C1072.56 2.35469 1072.56 2.3553 1072.56 2.3559C1072.56 2.35651 1072.56 2.35712 1072.56 2.35773C1072.56 2.35834 1072.56 2.35895 1072.56 2.35956C1072.56 2.36017 1072.56 2.36078 1072.56 2.36139C1072.56 2.362 1072.56 2.36261 1072.56 2.36322C1072.56 2.36383 1072.56 2.36444 1072.56 2.36505C1072.56 2.36566 1072.56 2.36627 1072.56 2.36688C1072.56 2.3675 1072.56 2.36811 1072.56 2.36872C1072.56 2.36933 1072.56 2.36995 1072.56 2.37056C1072.56 2.37117 1072.56 2.37179 1072.56 2.3724C1072.56 2.37302 1072.56 2.37363 1072.56 2.37424C1072.56 2.37486 1072.56 2.37547 1072.56 2.37609C1072.56 2.3767 1072.56 2.37732 1072.56 2.37794C1072.56 2.37855 1072.56 2.37917 1072.56 2.37978C1072.56 2.3804 1072.56 2.38102 1072.56 2.38163C1072.56 2.38225 1072.56 2.38287 1072.56 2.38349C1072.56 2.3841 1072.56 2.38472 1072.56 2.38534C1072.56 2.38596 1072.56 2.38658 1072.56 2.3872C1072.56 2.38782 1072.56 2.38844 1072.56 2.38906C1072.56 2.38968 1072.56 2.3903 1072.56 2.39092C1072.56 2.39154 1072.56 2.39216 1072.56 2.39278C1072.56 2.3934 1072.56 2.39402 1072.56 2.39464C1072.56 2.39527 1072.56 2.39589 1072.56 2.39651C1072.56 2.39713 1072.56 2.39775 1072.56 2.39838C1072.56 2.399 1072.56 2.39962 1072.56 2.40025C1072.56 2.40087 1072.56 2.4015 1072.56 2.40212C1072.56 2.40274 1072.56 2.40337 1072.56 2.40399C1072.56 2.40462 1072.56 2.40524 1072.56 2.40587C1072.56 2.4065 1072.56 2.40712 1072.56 2.40775C1072.56 2.40837 1072.56 2.409 1072.56 2.40963C1072.56 2.41025 1072.56 2.41088 1072.56 2.41151C1072.56 2.41214 1072.56 2.41277 1072.56 2.41339C1072.56 2.41402 1072.56 2.41465 1072.56 2.41528C1072.56 2.41591 1072.56 2.41654 1072.56 2.41717C1072.56 2.4178 1072.56 2.41843 1072.56 2.41906C1072.56 2.41969 1072.56 2.42032 1072.56 2.42095C1072.56 2.42158 1072.56 2.42221 1072.56 2.42284C1072.56 2.42347 1072.56 2.4241 1072.56 2.42474C1072.56 2.42537 1072.56 2.426 1072.56 2.42663C1072.56 2.42727 1072.56 2.4279 1072.56 2.42853C1072.56 2.42917 1072.56 2.4298 1072.56 2.43043C1072.56 2.43107 1072.56 2.4317 1072.56 2.43234C1072.56 2.43297 1072.56 2.43361 1072.56 2.43424C1072.56 2.43488 1072.56 2.43551 1072.56 2.43615C1072.56 2.43679 1072.56 2.43742 1072.56 2.43806C1072.56 2.4387 1072.56 2.43933 1072.56 2.43997C1072.56 2.44061 1072.56 2.44125 1072.56 2.44188C1072.56 2.44252 1072.56 2.44316 1072.56 2.4438C1072.56 2.44444 1072.56 2.44508 1072.56 2.44572C1072.56 2.44636 1072.56 2.44699 1072.56 2.44763C1072.56 2.44827 1072.56 2.44892 1072.56 2.44956C1072.56 2.4502 1072.56 2.45084 1072.56 2.45148C1072.56 2.45212 1072.56 2.45276 1072.56 2.4534C1072.56 2.45405 1072.56 2.45469 1072.56 2.45533C1072.56 2.45597 1072.56 2.45662 1072.56 2.45726C1072.56 2.4579 1072.56 2.45855 1072.56 2.45919C1072.56 2.45983 1072.56 2.46048 1072.56 2.46112C1072.56 2.46177 1072.56 2.46241 1072.56 2.46306C1072.56 2.4637 1072.56 2.46435 1072.56 2.46499C1072.56 2.46564 1072.56 2.46629 1072.56 2.46693C1072.56 2.46758 1072.56 2.46822 1072.56 2.46887C1072.56 2.46952 1072.56 2.47017 1072.56 2.47081C1072.56 2.47146 1072.56 2.47211 1072.56 2.47276C1072.56 2.47341 1072.56 2.47406 1072.56 2.4747C1072.56 2.47535 1072.56 2.476 1072.56 2.47665C1072.56 2.4773 1072.56 2.47795 1072.56 2.4786C1072.56 2.47925 1072.56 2.4799 1072.56 2.48056C1072.56 2.48121 1072.56 2.48186 1072.56 2.48251C1072.56 2.48316 1072.56 2.48381 1072.56 2.48447C1072.56 2.48512 1072.56 2.48577 1072.56 2.48642C1072.56 2.48708 1072.56 2.48773 1072.56 2.48838C1072.56 2.48904 1072.56 2.48969 1072.56 2.49035C1072.56 2.491 1072.56 2.49165 1072.56 2.49231C1072.56 2.49296 1072.56 2.49362 1072.56 2.49428C1072.56 2.49493 1072.56 2.49559 1072.56 2.49624C1072.56 2.4969 1072.56 2.49756 1072.56 2.49821C1072.56 2.49887 1072.56 2.49953 1072.56 2.50018C1072.56 2.50084 1072.56 2.5015 1072.56 2.50216C1072.56 2.50282 1072.56 2.50347 1072.56 2.50413C1072.56 2.50479 1072.56 2.50545 1072.56 2.50611C1072.56 2.50677 1072.56 2.50743 1072.56 2.50809C1072.56 2.50875 1072.56 2.50941 1072.56 2.51007C1072.56 2.51073 1072.56 2.51139 1072.56 2.51205C1072.56 2.51272 1072.56 2.51338 1072.56 2.51404C1072.56 2.5147 1072.56 2.51536 1072.56 2.51603C1072.56 2.51669 1072.56 2.51735 1072.56 2.51802C1072.56 2.51868 1072.56 2.51934 1072.56 2.52001C1072.56 2.52067 1072.56 2.52134 1072.56 2.522C1072.56 2.52267 1072.56 2.52333 1072.56 2.524C1072.56 2.52466 1072.56 2.52533 1072.56 2.52599C1072.56 2.52666 1072.56 2.52733 1072.56 2.52799H1073.56ZM1073.06 2.25999H1133.99V1.25999H1073.06V2.25999ZM1167.68 1.75999H1168.18V1.25999H1167.68V1.75999ZM1167.68 32.864H1167.18V33.364H1167.68V32.864ZM1193.79 33.632L1193.72 34.1269L1193.73 34.1285L1193.79 33.632ZM1204.28 36.192L1204.11 36.6602L1204.28 36.192ZM1212.6 41.312L1212.25 41.6656L1212.6 41.312ZM1217.72 49.888L1217.25 50.0562L1217.26 50.066L1217.72 49.888ZM1216.96 77.536L1217.41 77.748L1216.96 77.536ZM1208.64 86.624L1208.39 86.1874L1208.64 86.624ZM1196.73 90.848L1196.64 90.3559L1196.64 90.3562L1196.73 90.848ZM1151.16 92H1150.66V92.5H1151.16V92ZM1151.16 1.75999V1.25999H1150.66V1.75999H1151.16ZM1231.68 1.75999V1.25999H1231.18V1.75999H1231.68ZM1248.06 1.75999H1248.56V1.25999H1248.06V1.75999ZM1248.06 92V92.5H1248.56V92H1248.06ZM1231.68 92H1231.18V92.5H1231.68V92ZM1167.68 77.664H1167.18V78.164H1167.68V77.664ZM1198.53 74.848L1198.78 75.2779L1198.79 75.2726L1198.53 74.848ZM1167.68 47.2V46.7H1167.18V47.2H1167.68ZM1167.18 1.75999V32.864H1168.18V1.75999H1167.18ZM1167.68 33.364H1181.63V32.364H1167.68V33.364ZM1181.63 33.364C1186.22 33.364 1190.25 33.6191 1193.72 34.1267L1193.86 33.1373C1190.33 32.6209 1186.25 32.364 1181.63 32.364V33.364ZM1193.73 34.1285C1197.27 34.5504 1200.73 35.3941 1204.11 36.6602L1204.46 35.7238C1201.01 34.4299 1197.47 33.567 1193.85 33.1355L1193.73 34.1285ZM1204.11 36.6602C1207.47 37.9202 1210.18 39.5921 1212.25 41.6656L1212.96 40.9584C1210.77 38.7653 1207.93 37.0238 1204.46 35.7238L1204.11 36.6602ZM1212.25 41.6656C1214.32 43.7347 1215.99 46.5242 1217.25 50.0562L1218.2 49.7198C1216.9 46.0838 1215.16 43.156 1212.96 40.9584L1212.25 41.6656ZM1217.26 50.066C1218.6 53.5802 1219.27 57.7412 1219.27 62.56H1220.27C1220.27 57.6508 1219.58 53.3638 1218.19 49.71L1217.26 50.066ZM1219.27 62.56C1219.27 68.4843 1218.34 73.3986 1216.5 77.324L1217.41 77.748C1219.33 73.652 1220.27 68.5824 1220.27 62.56H1219.27ZM1216.5 77.324C1214.67 81.2452 1211.97 84.1933 1208.39 86.1874L1208.88 87.0606C1212.65 84.9587 1215.49 81.8482 1217.41 77.748L1216.5 77.324ZM1208.39 86.1874C1204.77 88.2076 1200.86 89.5974 1196.64 90.3559L1196.82 91.3401C1201.14 90.5626 1205.16 89.1364 1208.88 87.0606L1208.39 86.1874ZM1196.64 90.3562C1192.5 91.1171 1187.5 91.5 1181.63 91.5V92.5C1187.54 92.5 1192.6 92.1149 1196.82 91.3398L1196.64 90.3562ZM1181.63 91.5H1151.16V92.5H1181.63V91.5ZM1151.66 92V1.75999H1150.66V92H1151.66ZM1151.16 2.25999H1167.68V1.25999H1151.16V2.25999ZM1231.68 2.25999H1248.06V1.25999H1231.68V2.25999ZM1247.56 1.75999V92H1248.56V1.75999H1247.56ZM1248.06 91.5H1231.68V92.5H1248.06V91.5ZM1232.18 92V1.75999H1231.18V92H1232.18ZM1167.68 78.164H1181.63V77.164H1167.68V78.164ZM1181.63 78.164C1189.74 78.164 1195.5 77.2306 1198.78 75.2778L1198.27 74.4182C1195.24 76.2201 1189.73 77.164 1181.63 77.164V78.164ZM1198.79 75.2726C1202.17 73.1698 1203.76 68.8428 1203.76 62.56H1202.76C1202.76 68.7358 1201.19 72.6009 1198.26 74.4234L1198.79 75.2726ZM1203.76 62.56C1203.76 56.1951 1202.17 51.8232 1198.79 49.7194L1198.26 50.5686C1201.19 52.3901 1202.76 56.2955 1202.76 62.56H1203.76ZM1198.79 49.7194C1195.5 47.676 1189.74 46.7 1181.63 46.7V47.7C1189.73 47.7 1195.23 48.6867 1198.26 50.5686L1198.79 49.7194ZM1181.63 46.7H1167.68V47.7H1181.63V46.7ZM1167.18 47.2V77.664H1168.18V47.2H1167.18Z" fill="white" fill-opacity="0.1"/>
</svg>
