<svg width="848" height="783" viewBox="0 0 848 783" fill="none" xmlns="http://www.w3.org/2000/svg">
<path opacity="0.0769" d="M354.543 88.1402C412.288 106.805 459.225 97.0408 513.245 83.0921C556.308 71.9831 634.27 41.296 674.922 60.1267C714.993 78.6917 731.021 118.661 732.401 162.566C732.85 176.996 715.292 222.23 718.119 236.544C723.356 263.079 746.55 281.86 759.253 305.722C773.402 332.258 773.435 365.967 759.403 392.486C752.32 405.837 741.778 417.843 739.218 432.804C734.712 459.29 786.155 482.04 796.264 506.5C798.874 512.81 800.836 519.651 799.938 526.476C798.791 535.211 793.155 542.65 787.269 549.193C771.108 567.176 720.679 581.922 698.765 591.836C661.954 608.491 617.627 612.858 589.528 642.217C569.725 662.907 557.505 695.753 529.256 700.253C504.532 704.189 484.231 683.382 461.054 674.465C440.071 664.883 411.789 685.225 392.652 692.864C366.215 703.491 339.729 714.002 313.226 724.397C273.172 740.073 230.242 755.765 188.16 746.599C153.061 738.944 122.452 713.156 109.134 680.243C94.8346 645.272 99.4403 590.158 131.596 568.073C147.525 557.147 167.526 553.643 182.64 541.305C201.777 525.712 207.68 495.972 198.934 472.209C187.994 442.369 161.774 427.806 136.568 412.097C102.549 390.909 71.973 363.958 47.0663 332.374C34.9288 316.981 24.0549 300.193 18.5016 281.296C12.9483 262.365 13.3474 240.894 23.1072 223.641C45.8192 183.456 112.243 193.785 150.168 193.237C173.712 192.904 200.913 197.155 224.406 191.427C234.366 189.002 244.092 182.941 248.282 173.692C253.254 162.716 249.679 150.477 249.396 138.77C248.98 122.331 255.631 105.526 267.436 93.3212C295.153 64.743 322.504 77.7784 354.543 88.1402Z" stroke="url(#paint0_linear_138_152)" stroke-width="2.0769" stroke-miterlimit="10" stroke-linecap="round" stroke-linejoin="round"/>
<path opacity="0.1538" d="M362.956 90.3652C418.805 107.336 464.495 98.7842 516.603 87.2268C558.769 77.8612 632.707 51.5747 672.146 70.6711C710.42 89.2028 726.133 127.445 728.942 169.491C729.907 183.838 714.594 226.447 717.636 240.811C723.04 266.4 744.621 284.965 756.559 308.246C769.827 334.068 770.027 366.515 757.158 392.42C750.657 405.422 740.963 417.179 738.536 431.642C734.246 457.547 781.001 480.014 789.863 503.926C792.124 510.037 793.836 516.629 792.905 523.221C791.708 531.64 786.354 538.847 780.818 545.257C765.288 563.207 718.335 578.302 697.252 588.631C662.403 605.684 620.304 611.015 593.003 639.194C573.766 659.055 561.379 689.957 534.244 694.773C510.501 698.974 490.749 680.409 468.319 672.654C447.968 664.269 420.867 683.232 402.112 690.456C376.507 700.452 350.819 710.216 325.081 719.748C286.108 734.112 244.574 748.176 203.939 739.16C169.987 731.621 140.358 707.211 126.475 676.191C111.611 642.997 114.038 591.204 142.021 569.435C155.904 558.674 173.545 554.656 186.797 542.517C203.573 527.173 208.295 498.811 199.699 475.846C188.991 447.168 164.417 432.406 140.907 416.514C109.183 395.143 80.7186 368.474 58.0398 337.289C46.8334 321.896 37.0569 305.141 32.1853 286.543C27.3303 267.878 28.0286 246.922 37.4061 229.885C59.2702 190.115 121.77 196.773 158.631 194.15C181.327 192.539 207.547 195.412 230.442 189.201C240.135 186.594 249.612 180.666 254.052 171.848C259.306 161.387 256.745 149.796 257.227 138.737C257.876 123.211 265.075 107.485 276.963 95.9447C304.414 69.3094 331.465 80.7838 362.956 90.3652Z" stroke="url(#paint1_linear_138_152)" stroke-width="2.1539" stroke-miterlimit="10" stroke-linecap="round" stroke-linejoin="round"/>
<path opacity="0.2308" d="M371.369 92.5739C425.306 107.884 469.799 100.561 519.979 91.3451C561.263 83.7563 631.178 61.8205 669.386 81.1991C705.865 99.6977 721.327 136.246 725.501 176.399C726.981 190.679 713.929 230.665 717.171 245.062C722.741 269.705 742.709 288.071 753.882 310.737C766.286 335.845 766.635 367.03 754.93 392.304C749.028 404.957 740.165 416.465 737.888 430.413C733.814 455.737 775.88 477.905 783.495 501.286C785.423 507.214 786.886 513.557 785.889 519.884C784.625 527.971 779.571 534.962 774.367 541.239C759.469 559.172 716.007 574.599 695.739 585.343C662.868 602.762 622.997 609.089 596.478 636.106C577.789 655.136 565.253 684.096 539.216 689.227C516.437 693.694 497.25 677.371 475.585 670.795C455.849 663.605 429.929 681.123 411.589 687.998C386.799 697.281 361.926 706.38 336.952 715.049C299.06 728.117 258.923 740.538 219.734 731.687C186.93 724.281 158.216 701.249 143.834 672.107C128.354 640.739 128.653 592.234 152.463 570.78C164.284 560.185 179.598 555.669 190.97 543.713C205.369 528.635 208.927 501.634 200.464 479.483C189.989 451.951 167.061 436.989 145.247 420.948C115.818 399.378 89.481 372.991 69.0136 342.238C58.7549 326.828 50.0592 310.123 45.8693 291.824C41.696 273.425 42.6936 252.983 51.7052 236.162C72.7379 196.79 131.297 199.812 167.094 195.096C188.942 192.224 214.164 193.702 236.461 187.009C245.871 184.22 255.116 178.424 259.805 170.039C265.341 160.092 263.812 149.165 265.042 138.737C266.754 124.124 274.519 109.462 286.49 98.5851C313.658 73.8761 340.444 83.8062 371.369 92.5739Z" stroke="url(#paint2_linear_138_152)" stroke-width="2.2308" stroke-miterlimit="10" stroke-linecap="round" stroke-linejoin="round"/>
<path opacity="0.3077" d="M379.783 94.7989C431.808 108.449 475.12 102.388 523.338 95.4797C563.774 89.6844 629.632 72.0826 666.626 91.7601C701.309 110.209 716.606 145.097 722.043 183.34C724.071 197.57 713.214 234.9 716.689 249.363C722.392 273.059 740.798 291.209 751.173 313.278C762.695 337.671 763.26 367.628 752.686 392.254C747.398 404.558 739.351 415.817 737.206 429.251C733.349 454.01 770.742 475.862 777.094 498.712C778.69 504.441 779.887 510.535 778.856 516.612C777.543 524.384 772.787 531.159 767.899 537.286C753.65 555.22 713.663 570.929 694.21 582.105C663.301 599.873 625.658 607.196 599.92 633.05C581.797 651.25 569.094 678.284 544.171 683.714C522.373 688.446 503.751 674.382 482.818 668.952C463.698 662.957 438.957 679.098 421.034 685.557C397.075 694.192 372.999 702.561 348.807 710.366C311.996 722.122 273.256 732.916 235.513 724.231C203.873 716.941 176.04 695.321 161.175 668.022C145.064 638.464 143.252 593.264 162.905 572.125C172.681 561.696 185.65 556.682 195.127 544.908C207.165 530.08 209.542 504.441 201.213 483.119C190.987 456.733 169.688 441.572 149.553 425.365C122.419 403.612 98.227 377.458 79.9543 347.17C70.6433 331.727 63.0283 315.088 59.5201 297.087C56.0285 278.954 57.342 259.044 65.9712 242.422C86.156 203.465 140.775 202.868 175.524 196.026C196.524 191.891 220.749 191.974 242.463 184.801C251.608 181.812 260.62 176.166 265.541 168.212C271.36 158.78 270.845 148.501 272.857 138.721C275.633 125.021 283.93 111.404 296.001 101.209C322.886 78.4259 349.406 86.8283 379.783 94.7989Z" stroke="url(#paint3_linear_138_152)" stroke-width="2.3077" stroke-miterlimit="10" stroke-linecap="round" stroke-linejoin="round"/>
<path opacity="0.3846" d="M388.195 97.0242C438.291 109.047 480.457 104.248 526.695 99.6146C566.284 95.6459 628.085 82.3283 663.849 102.305C696.753 120.687 711.933 153.931 718.584 190.264C721.178 204.445 712.498 239.134 716.206 253.631C722.026 276.38 738.868 294.331 748.479 315.785C759.136 339.465 759.851 368.159 750.441 392.154C745.752 404.11 738.536 415.12 736.541 428.055C732.899 452.233 765.621 473.77 770.692 496.088C771.955 501.618 772.887 507.463 771.806 513.308C770.442 520.764 765.97 527.306 761.414 533.318C747.813 551.252 711.301 567.243 692.68 578.867C663.716 596.95 628.334 605.319 603.378 629.995C585.803 647.364 572.951 672.455 549.141 678.201C528.325 683.216 510.252 671.376 490.084 667.108C471.595 662.309 448.035 677.055 430.494 683.116C407.366 691.103 384.089 698.742 360.662 705.683C324.931 716.128 287.587 725.294 251.291 716.776C220.798 709.602 193.863 689.376 178.5 663.953C161.74 636.206 157.766 594.277 173.312 573.47C181.01 563.174 191.635 557.661 199.267 546.104C208.91 531.508 210.124 507.264 201.943 486.739C191.951 461.499 172.281 446.139 153.859 429.782C129.019 407.846 106.989 381.909 90.894 352.102C82.5308 336.625 76.0131 320.053 73.1866 302.351C70.3933 284.484 71.9894 265.089 80.2529 248.699C99.5897 210.141 150.268 205.956 183.97 196.973C204.105 191.609 227.332 190.214 248.481 182.609C257.344 179.421 266.122 173.924 271.277 166.402C277.379 157.485 277.877 147.854 280.654 138.737C284.495 125.951 293.324 113.397 305.494 103.866C332.08 82.9593 358.35 89.8672 388.195 97.0242Z" stroke="url(#paint4_linear_138_152)" stroke-width="2.3846" stroke-miterlimit="10" stroke-linecap="round" stroke-linejoin="round"/>
<path opacity="0.4615" d="M396.608 99.2493C444.776 109.661 485.811 106.157 530.071 103.749C568.844 101.624 626.572 92.5406 661.089 112.849C692.214 131.148 707.377 162.749 715.142 197.189C718.318 211.303 711.8 243.352 715.741 257.898C721.66 279.718 736.956 297.453 745.785 318.293C755.562 341.258 756.459 368.691 748.196 392.071C744.106 403.678 737.721 414.422 735.876 426.86C732.451 450.456 760.516 471.678 764.307 493.481C765.238 498.811 765.903 504.408 764.789 510.004C763.36 517.144 759.203 523.471 754.963 529.332C742.027 547.266 708.957 563.507 691.166 575.612C664.148 593.978 631.011 603.426 606.853 626.923C589.844 643.479 576.825 666.61 554.113 672.671C534.277 677.952 516.753 668.354 497.333 665.249C479.459 661.662 457.096 675.013 439.954 680.659C417.658 688.015 395.195 694.906 372.516 700.984C337.866 710.133 301.92 717.656 267.07 709.303C237.724 702.246 211.67 683.432 195.841 659.852C178.433 633.931 172.348 595.29 183.737 574.798C189.374 564.669 197.654 558.658 203.423 547.283C210.689 532.936 210.739 510.07 202.708 490.359C192.948 466.265 174.925 450.705 158.199 434.183C135.67 412.064 115.817 386.309 101.867 357.017C94.4686 341.474 89.0151 325.001 86.8702 307.599C84.7586 290.014 86.6707 271.116 94.5518 254.943C113.041 216.783 159.762 209.045 192.433 197.886C211.703 191.31 233.966 188.471 254.517 180.384C263.096 177.013 271.642 171.649 277.046 164.559C283.431 156.14 284.944 147.173 288.485 138.704C293.39 126.831 302.751 115.323 315.021 106.473C341.258 87.476 367.296 92.906 396.608 99.2493Z" stroke="url(#paint5_linear_138_152)" stroke-width="2.4615" stroke-miterlimit="10" stroke-linecap="round" stroke-linejoin="round"/>
<path opacity="0.5385" d="M405.022 101.458C451.26 110.292 491.214 105.941 533.429 107.851C571.355 109.578 625.026 102.72 658.329 123.36C687.675 141.56 702.888 171.55 711.684 204.08C715.491 218.145 711.069 247.553 715.259 262.133C721.261 283.023 735.028 300.525 743.092 320.783C752.004 343.035 753.051 369.205 745.952 391.955C742.443 403.197 736.89 413.708 735.194 425.647C731.935 448.663 755.412 469.569 757.906 490.857C758.505 495.988 758.904 501.352 757.74 506.682C756.26 513.507 752.403 519.618 748.479 525.33C736.208 543.281 706.58 559.737 689.62 572.324C664.531 590.955 633.672 601.5 610.278 623.834C593.817 639.56 580.649 660.765 559.051 667.125C540.196 672.671 523.221 665.331 504.566 663.372C487.307 660.981 466.141 672.937 449.382 678.184C427.917 684.909 406.252 691.07 384.338 696.251C350.769 704.089 316.219 709.984 282.799 701.781C254.617 694.839 229.411 677.437 213.133 655.717C195.06 631.622 186.88 596.269 194.129 576.077C197.704 566.13 203.656 559.604 207.53 548.412C212.418 534.331 211.304 512.81 203.407 493.913C193.896 470.964 177.502 455.222 162.455 438.533C142.221 416.215 124.58 390.643 112.758 361.866C106.34 346.273 101.934 329.883 100.471 312.78C99.0411 295.46 101.252 277.094 108.751 261.12C126.409 223.375 169.172 212.084 200.796 198.733C219.219 190.945 240.484 186.661 260.453 178.092C268.766 174.522 277.079 169.308 282.716 162.649C289.383 154.745 291.927 146.425 296.233 138.604C302.202 127.645 312.079 117.167 324.465 109.013C350.42 91.9593 376.258 95.9613 405.022 101.458Z" stroke="url(#paint6_linear_138_152)" stroke-width="2.5385" stroke-miterlimit="10" stroke-linecap="round" stroke-linejoin="round"/>
<path opacity="0.6154" d="M413.435 103.683C457.729 110.956 496.552 110.126 536.788 111.986C573.949 113.713 623.513 112.916 655.553 133.905C683.136 151.989 698.483 180.351 708.226 211.005C712.682 225.003 710.338 251.788 714.777 266.401C720.862 286.36 733.116 303.647 740.382 323.291C748.413 344.828 749.626 369.737 743.707 391.872C740.798 402.765 736.076 413.027 734.529 424.452C731.487 446.903 750.341 467.46 751.522 488.234C751.804 493.166 751.921 498.28 750.724 503.378C749.194 509.887 745.636 515.782 742.045 521.345C730.456 539.312 704.236 555.968 688.124 569.069C664.947 587.917 636.366 599.59 613.77 620.762C597.875 635.658 584.54 654.92 564.039 661.595C546.166 667.407 529.755 662.309 511.832 661.512C495.205 660.317 475.203 670.895 458.859 675.727C438.225 681.821 417.359 687.234 396.21 691.552C363.721 698.078 330.568 702.345 298.595 694.308C271.56 687.483 247.218 671.492 230.492 651.632C211.737 629.364 201.478 597.315 204.571 577.422C206.084 567.641 209.692 560.617 211.704 549.608C214.231 535.792 211.937 515.633 204.172 497.549C194.894 475.763 180.13 459.805 166.795 442.951C148.855 420.45 133.475 395.027 123.732 366.798C118.312 351.122 114.937 334.849 114.155 318.044C113.424 300.99 115.934 283.139 123.05 267.38C139.86 230.034 178.7 215.256 209.26 199.663C226.834 190.696 247.102 184.934 266.489 175.884C274.519 172.131 282.6 167.066 288.486 160.823C295.436 153.433 298.994 145.761 304.065 138.588C311.098 128.541 321.49 119.093 333.993 111.637C359.565 96.4264 385.186 99.0335 413.435 103.683Z" stroke="url(#paint7_linear_138_152)" stroke-width="2.6154" stroke-miterlimit="10" stroke-linecap="round" stroke-linejoin="round"/>
<path opacity="0.6923" d="M421.848 105.908C464.179 111.654 501.922 112.201 540.147 116.12C576.493 119.84 622 123.078 652.776 144.466C678.614 162.417 694.126 189.135 704.751 217.945C709.888 231.878 709.556 256.039 714.294 270.685C720.43 289.715 731.187 306.768 737.688 325.815C744.854 346.638 746.218 370.285 741.462 391.789C739.135 402.333 735.261 412.346 733.864 423.256C731.037 445.126 745.303 465.351 745.137 485.627C745.104 490.342 744.937 495.225 743.69 500.073C742.094 506.267 738.852 511.946 735.576 517.36C724.669 535.36 701.841 552.181 686.594 565.815C665.296 584.861 639.025 597.697 617.211 617.69C601.865 631.755 588.381 649.075 568.994 656.066C552.085 662.143 536.239 659.287 519.081 659.669C503.069 659.669 484.264 668.885 468.303 673.286C448.517 678.749 428.432 683.415 408.064 686.869C376.657 692.1 344.9 694.74 314.373 686.852C288.485 680.16 264.992 665.581 247.833 647.547C228.397 627.122 216.076 598.361 214.996 578.767C214.464 569.152 215.727 561.63 215.86 550.803C216.01 537.253 212.551 518.456 204.92 501.186C195.875 480.545 182.756 464.388 171.118 447.384C155.472 424.701 142.387 399.411 134.672 371.746C130.283 355.987 127.905 339.83 127.822 323.324C127.772 306.536 130.582 289.2 137.332 273.657C153.294 236.726 188.227 218.46 217.706 200.609C234.449 190.48 253.702 183.24 272.507 173.692C280.272 169.756 288.103 164.824 294.238 159.012C301.471 152.138 306.043 145.13 311.879 138.588C319.976 129.455 330.867 121.019 343.503 114.277C368.676 100.877 394.131 102.139 421.848 105.908Z" stroke="url(#paint8_linear_138_152)" stroke-width="2.6923" stroke-miterlimit="10" stroke-linecap="round" stroke-linejoin="round"/>
<path opacity="0.7692" d="M430.261 108.117C470.647 112.368 507.275 114.327 543.522 120.239C579.036 126.034 620.536 133.208 650.032 154.994C674.141 172.795 689.869 197.853 701.325 224.853C707.194 238.686 708.824 260.273 713.845 274.952C720.03 293.069 729.291 309.89 735.028 328.322C741.312 348.432 742.825 370.799 739.251 391.706C737.505 401.901 734.512 411.666 733.215 422.077C730.655 443.382 740.298 463.259 738.769 483.036C738.419 487.553 737.97 492.202 736.69 496.802C735.044 502.68 732.118 508.16 729.142 513.408C718.95 531.458 699.463 548.412 685.114 562.577C665.661 581.789 641.752 595.821 620.719 614.635C605.938 627.869 592.288 643.246 574.015 650.553C558.087 656.896 542.79 656.282 526.38 657.826C510.983 659.021 493.376 666.859 477.813 670.845C458.859 675.693 439.572 679.596 419.969 682.186C389.642 686.105 359.282 687.118 330.201 679.396C305.461 672.821 282.799 659.686 265.224 643.479C245.073 624.914 230.741 599.408 225.47 580.112C222.893 570.68 221.812 562.643 220.05 551.999C217.855 538.714 213.2 521.262 205.718 504.806C196.905 485.311 185.433 468.955 175.474 451.785C162.122 428.919 151.382 403.761 145.662 376.661C142.32 360.819 140.94 344.779 141.522 328.572C142.154 312.049 145.28 295.228 151.648 279.901C166.761 243.369 197.803 221.649 226.185 201.523C242.097 190.231 260.369 181.53 278.559 171.467C286.058 167.348 293.656 162.549 300.024 157.169C307.539 150.809 313.142 144.449 319.743 138.554C328.905 130.335 340.277 122.895 353.063 116.884C377.787 105.277 403.076 105.26 430.261 108.117Z" stroke="url(#paint9_linear_138_152)" stroke-width="2.7692" stroke-miterlimit="10" stroke-linecap="round" stroke-linejoin="round"/>
<path opacity="0.8462" d="M438.674 110.342C477.098 113.148 512.596 116.536 546.88 124.373C581.547 132.294 619.073 143.337 647.255 165.538C669.635 183.174 685.646 206.537 697.867 231.778C704.501 245.477 708.042 264.524 713.363 279.22C719.581 296.423 727.379 312.995 732.317 330.83C737.738 350.208 739.384 371.331 737.006 391.606C735.842 401.436 733.697 410.951 732.55 420.865C730.206 441.589 735.294 461.15 732.384 480.396C731.735 484.713 730.987 489.114 729.657 493.464C727.961 499.027 725.351 504.291 722.674 509.406C713.213 527.506 697.002 544.56 683.585 559.305C665.944 578.667 644.412 593.911 624.178 611.546C609.945 623.951 596.145 637.401 578.97 645.006C564.022 651.615 549.291 653.259 533.629 655.949C518.848 658.341 502.454 664.817 487.257 668.37C469.151 672.605 450.645 675.743 431.807 677.47C402.561 680.077 373.597 679.463 345.964 671.907C322.387 665.448 300.539 653.774 282.533 639.36C261.666 622.672 245.322 600.404 235.878 581.424C231.256 572.158 227.848 563.623 224.19 553.161C219.634 540.126 213.798 524.052 206.449 508.409C197.886 490.06 188.043 473.504 179.78 456.185C168.723 433.12 160.377 408.112 156.602 381.576C154.341 365.652 153.909 349.71 155.173 333.819C156.503 317.562 159.928 301.272 165.913 286.144C180.179 250.011 207.364 224.853 234.615 202.436C249.728 189.998 266.954 179.786 284.561 169.241C291.777 164.941 299.143 160.274 305.76 155.326C313.558 149.481 320.176 143.769 327.541 138.521C337.767 131.215 349.638 124.739 362.557 119.491C386.882 109.644 412.005 108.399 438.674 110.342Z" stroke="url(#paint10_linear_138_152)" stroke-width="2.8461" stroke-miterlimit="10" stroke-linecap="round" stroke-linejoin="round"/>
<path opacity="0.9231" d="M447.087 112.567C483.566 113.945 517.884 118.794 550.239 128.508C584.008 138.637 617.627 153.433 644.479 176.083C665.162 193.535 681.457 215.172 694.392 238.702C701.841 252.236 707.228 268.775 712.864 283.487C719.099 299.777 725.434 316.117 729.607 333.354C734.147 352.018 735.909 371.879 734.745 391.54C734.147 401.021 732.866 410.287 731.869 419.702C729.757 439.845 730.306 459.107 725.983 477.822C725.035 481.94 723.988 486.091 722.624 490.193C720.862 495.44 718.584 500.505 716.206 505.453C707.511 523.603 694.525 540.757 682.055 556.084C666.193 575.578 647.089 592.035 627.619 608.524C613.952 620.098 599.986 631.606 583.925 639.526C569.958 646.401 555.776 650.287 540.862 654.139C526.712 657.726 511.499 662.857 496.701 665.962C479.443 669.582 461.719 671.957 443.645 672.82C415.48 674.132 387.913 671.874 361.726 664.484C339.296 658.141 318.264 647.945 299.858 635.325C278.277 620.53 259.954 601.466 246.287 582.818C239.636 573.702 233.883 564.669 228.33 554.406C221.43 541.62 214.397 526.924 207.181 512.096C198.851 494.892 190.637 478.154 184.086 460.652C175.324 437.404 169.405 412.546 167.543 386.558C166.396 370.567 166.878 354.725 168.823 339.133C170.835 323.141 174.559 307.366 180.179 292.454C193.614 256.736 216.974 228.141 243.045 203.416C257.36 189.832 273.538 178.109 290.564 167.083C297.514 162.599 304.646 158.066 311.48 153.549C319.561 148.219 327.192 143.154 335.323 138.571C346.612 132.178 358.966 126.648 372.034 122.198C395.993 113.962 420.95 111.57 447.087 112.567Z" stroke="url(#paint11_linear_138_152)" stroke-width="2.9231" stroke-miterlimit="10" stroke-linecap="round" stroke-linejoin="round"/>
<path d="M651.37 587.071C759.551 479.028 759.551 303.855 651.37 195.812C543.189 87.7687 367.794 87.7686 259.613 195.812C151.432 303.855 151.432 479.028 259.613 587.071C367.794 695.114 543.19 695.114 651.37 587.071Z" stroke="url(#paint12_linear_138_152)" stroke-width="3" stroke-miterlimit="10" stroke-linecap="round" stroke-linejoin="round"/>
<defs>
<linearGradient id="paint0_linear_138_152" x1="130.736" y1="111.193" x2="678.854" y2="660.009" gradientUnits="userSpaceOnUse">
<stop stop-color="#FF10FF"/>
<stop offset="1" stop-color="#006FFE"/>
</linearGradient>
<linearGradient id="paint1_linear_138_152" x1="143.112" y1="118.886" x2="676.065" y2="652.518" gradientUnits="userSpaceOnUse">
<stop stop-color="#FF1FFF"/>
<stop offset="1" stop-color="#0077FD"/>
</linearGradient>
<linearGradient id="paint2_linear_138_152" x1="155.431" y1="126.564" x2="673.272" y2="645.065" gradientUnits="userSpaceOnUse">
<stop stop-color="#FF2FFF"/>
<stop offset="1" stop-color="#007FFC"/>
</linearGradient>
<linearGradient id="paint3_linear_138_152" x1="167.685" y1="134.211" x2="670.487" y2="637.653" gradientUnits="userSpaceOnUse">
<stop stop-color="#FF3FFF"/>
<stop offset="1" stop-color="#0087FB"/>
</linearGradient>
<linearGradient id="paint4_linear_138_152" x1="179.851" y1="141.816" x2="667.712" y2="630.298" gradientUnits="userSpaceOnUse">
<stop stop-color="#FF4EFF"/>
<stop offset="1" stop-color="#008FFA"/>
</linearGradient>
<linearGradient id="paint5_linear_138_152" x1="191.897" y1="149.365" x2="664.959" y2="623.029" gradientUnits="userSpaceOnUse">
<stop stop-color="#FF5EFF"/>
<stop offset="1" stop-color="#0097F9"/>
</linearGradient>
<linearGradient id="paint6_linear_138_152" x1="203.77" y1="156.832" x2="662.241" y2="615.886" gradientUnits="userSpaceOnUse">
<stop stop-color="#FF6EFF"/>
<stop offset="1" stop-color="#00A0F9"/>
</linearGradient>
<linearGradient id="paint7_linear_138_152" x1="215.383" y1="164.176" x2="659.59" y2="608.948" gradientUnits="userSpaceOnUse">
<stop stop-color="#FF7EFF"/>
<stop offset="1" stop-color="#00A8F8"/>
</linearGradient>
<linearGradient id="paint8_linear_138_152" x1="226.588" y1="171.32" x2="657.079" y2="602.36" gradientUnits="userSpaceOnUse">
<stop stop-color="#FF8DFF"/>
<stop offset="1" stop-color="#00B0F7"/>
</linearGradient>
<linearGradient id="paint9_linear_138_152" x1="237.11" y1="178.106" x2="654.929" y2="596.457" gradientUnits="userSpaceOnUse">
<stop stop-color="#FF9DFF"/>
<stop offset="1" stop-color="#00B8F6"/>
</linearGradient>
<linearGradient id="paint10_linear_138_152" x1="246.412" y1="184.215" x2="654.091" y2="592.413" gradientUnits="userSpaceOnUse">
<stop stop-color="#FFADFF"/>
<stop offset="1" stop-color="#00C0F5"/>
</linearGradient>
<linearGradient id="paint11_linear_138_152" x1="253.512" y1="189.297" x2="653.505" y2="589.799" gradientUnits="userSpaceOnUse">
<stop stop-color="#FFBCFF"/>
<stop offset="1" stop-color="#00C8F4"/>
</linearGradient>
<linearGradient id="paint12_linear_138_152" x1="175.99" y1="391.443" x2="734.996" y2="391.442" gradientUnits="userSpaceOnUse">
<stop stop-color="#FFCCFF"/>
<stop offset="1" stop-color="#00D0F3"/>
</linearGradient>
</defs>
</svg>
