<svg width="212" height="56" viewBox="0 0 212 56" fill="none" xmlns="http://www.w3.org/2000/svg">
<path d="M170.518 32.9709L162.603 21.981C161.402 22.121 160.342 22.1909 159.352 22.1909H149.883V32.9709H147.48V0.0710449H159.352C163.522 0.0710449 166.772 1.05105 169.175 3.01104C171.578 4.97104 172.708 7.70101 172.708 11.131C172.708 13.721 172.002 15.891 170.659 17.711C169.316 19.461 167.408 20.721 164.864 21.421L173.132 32.9009H170.518V32.9709ZM159.352 20.091C162.886 20.091 165.571 19.321 167.479 17.781C169.387 16.241 170.306 14.001 170.306 11.201C170.306 8.40103 169.387 6.16102 167.479 4.62103C165.571 3.08103 162.886 2.31105 159.352 2.31105H149.883V20.161H159.352V20.091Z" fill="#1588F1"/>
<path d="M32.012 0.0710449L17.2427 32.9709H14.7693L0 0.0710449H2.68532L16.112 29.8909L29.468 0.0710449H32.012Z" fill="#1588F1"/>
<path d="M66.3557 17.291H84.0223V15.191H63.8823V32.9709H86.7783V30.8009H66.285V17.291H66.3557ZM63.953 0.0710449V2.24104H86.849V0.0710449H63.953Z" fill="white"/>
<path d="M189.104 0.0710449V2.24104H212V0.0710449H189.104ZM191.507 30.8009V17.291H209.173V15.191H189.033V32.9709H212V30.8009H191.507Z" fill="white"/>
<path d="M45.5101 0.070004L32.0835 29.8199L26.6421 17.85L25.3701 20.7899L30.8115 32.8999H33.2141L47.9834 0H45.5101V0.070004Z" fill="white"/>
<path d="M7.27866 50.6799C7.27866 51.3799 6.996 51.9399 6.43067 52.3599C5.86534 52.7799 5.088 52.9199 3.95734 52.9199H0V44.6599H3.88667C4.876 44.6599 5.65332 44.8699 6.21866 45.2199C6.78399 45.5699 7.06667 46.1299 7.06667 46.7599C7.06667 47.1799 6.92533 47.5999 6.71333 47.8799C6.50133 48.1599 6.148 48.4399 5.724 48.5799C6.71334 48.9999 7.27866 49.6299 7.27866 50.6799ZM1.484 48.2999H3.74532C4.31066 48.2999 4.73467 48.2299 5.08801 48.0199C5.37067 47.8099 5.51199 47.5299 5.51199 47.1099C5.51199 46.3399 4.94666 45.9199 3.74532 45.9199H1.484V48.2999ZM5.3 51.5199C5.58267 51.3099 5.79467 51.0299 5.79467 50.6099C5.79467 50.1899 5.65334 49.8399 5.37067 49.6299C5.088 49.4199 4.66401 49.3499 4.02801 49.3499H1.55468V51.7999H3.95734C4.52267 51.7999 5.01733 51.7299 5.3 51.5199Z" fill="white"/>
<path d="M9.32848 44.7305H10.8125V50.7505L15.9005 44.7305H17.2431V52.9904H15.7591V46.9705L10.6711 52.9904H9.25781V44.7305H9.32848Z" fill="white"/>
<path d="M26.1477 45.2194C26.7837 45.5694 27.2783 46.0594 27.6317 46.6894C27.985 47.3194 28.197 48.0194 28.197 48.8594C28.197 49.6994 27.985 50.3994 27.6317 51.0294C27.2783 51.6594 26.7837 52.1494 26.1477 52.4994C25.5117 52.8494 24.805 53.0594 23.957 53.0594C23.3917 53.0594 22.8263 52.9194 22.3317 52.7094C21.837 52.4994 21.413 52.1494 21.0597 51.7294V55.9994H19.5757V44.7294H20.989V46.0594C21.3424 45.6394 21.7663 45.2894 22.261 45.0094C22.7557 44.7994 23.321 44.6594 23.957 44.6594C24.7343 44.6594 25.5117 44.8694 26.1477 45.2194ZM25.2997 51.3794C25.7237 51.1694 26.077 50.8194 26.289 50.3294C26.501 49.9094 26.6423 49.3494 26.6423 48.7894C26.6423 48.2294 26.501 47.7394 26.289 47.2494C26.077 46.8294 25.7237 46.4794 25.2997 46.1994C24.8757 45.9894 24.381 45.8494 23.8863 45.8494C23.3917 45.8494 22.897 45.9894 22.473 46.1994C22.049 46.4094 21.6957 46.7594 21.4837 47.2494C21.2717 47.6694 21.1303 48.1594 21.1303 48.7894C21.1303 49.3494 21.2717 49.8394 21.4837 50.3294C21.6957 50.7494 22.049 51.0994 22.473 51.3794C22.897 51.6594 23.3917 51.7294 23.8863 51.7294C24.381 51.7294 24.8757 51.6594 25.2997 51.3794Z" fill="white"/>
<path d="M36.1805 46.0605H33.1418V52.9904H31.6578V46.0605H28.6191V44.7305H36.1805V46.0605Z" fill="white"/>
<path d="M46.4285 44.7305L42.4005 53.7605C42.0472 54.6005 41.6232 55.1604 41.1285 55.5104C40.6338 55.8604 40.0685 56.0005 39.4325 56.0005C39.0085 56.0005 38.6552 55.9304 38.2312 55.7904C37.8778 55.6504 37.5245 55.4404 37.3125 55.2304L37.9485 54.1105C38.3725 54.5305 38.8672 54.7404 39.4325 54.7404C39.7858 54.7404 40.0685 54.6705 40.3512 54.4605C40.5632 54.2505 40.8458 53.9704 40.9872 53.4804L41.2698 52.9204L37.5952 44.7305H39.1498L42.0472 51.3105L44.9445 44.7305H46.4285Z" fill="white"/>
<path d="M53.637 45.4994C54.273 46.0594 54.5557 46.8994 54.5557 48.0194V52.9894H53.1423V51.8694C52.8597 52.2194 52.5063 52.5694 52.0823 52.7794C51.5877 52.9894 51.093 53.0594 50.457 53.0594C49.5383 53.0594 48.761 52.8494 48.1957 52.3594C47.6303 51.9394 47.3477 51.3094 47.3477 50.6094C47.3477 49.9094 47.6303 49.2794 48.125 48.8594C48.6903 48.4394 49.5383 48.2294 50.669 48.2294H53.0717V47.9494C53.0717 47.3194 52.8596 46.8294 52.5063 46.4794C52.153 46.1294 51.5877 45.9894 50.8103 45.9894C50.3157 45.9894 49.821 46.0594 49.397 46.1994C48.9023 46.3394 48.549 46.5494 48.1957 46.8294L47.5596 45.7094C47.9836 45.3594 48.4783 45.0794 49.1143 44.9394C49.7503 44.7994 50.3157 44.6594 51.0223 44.6594C52.153 44.6594 53.001 44.9394 53.637 45.4994ZM52.153 51.5194C52.577 51.2394 52.8597 50.8894 53.0717 50.4694V49.3494H50.7396C49.4676 49.3494 48.8317 49.7694 48.8317 50.6094C48.8317 51.0294 48.973 51.3794 49.3263 51.5894C49.6796 51.7994 50.1037 51.9394 50.669 51.9394C51.2343 51.9394 51.729 51.7994 52.153 51.5194Z" fill="white"/>
<path d="M64.0938 44.7305V52.9904H62.6098V46.0605H59.0058L58.9351 47.8805C58.8644 49.0005 58.7938 49.9104 58.6524 50.6804C58.5111 51.4504 58.2991 52.0104 57.9458 52.4304C57.5924 52.8504 57.1684 53.1304 56.5324 53.1304C56.2498 53.1304 55.9671 53.0604 55.6138 52.9904L55.6844 51.7304C55.8258 51.7304 55.9671 51.8005 56.0378 51.8005C56.4618 51.8005 56.7444 51.5904 56.9564 51.2404C57.1684 50.8904 57.3098 50.4704 57.3804 49.9804C57.4511 49.4905 57.5218 48.7905 57.5218 47.8805L57.6631 44.8705H64.0938V44.7305Z" fill="white"/>
<path d="M72.9272 48.2294C73.4925 48.7194 73.7752 49.3494 73.7752 50.1894C73.7752 51.0994 73.4925 51.7294 72.8565 52.2194C72.2205 52.7094 71.3725 52.9194 70.3125 52.9194H66.7085V44.6594H68.1925V47.4594H70.5245C71.5845 47.5294 72.3618 47.8094 72.9272 48.2294ZM71.7258 51.4494C72.0792 51.1694 72.2205 50.7494 72.2205 50.1894C72.2205 49.6294 72.0792 49.2794 71.7258 48.9994C71.3725 48.7194 70.8778 48.6494 70.1712 48.5794H68.1925V51.7994H70.1712C70.8072 51.8694 71.3725 51.7294 71.7258 51.4494Z" fill="white"/>
<path d="M75.6841 44.7305H77.1681V48.2305H81.9027V44.7305H83.3867V52.9904H81.9027V49.5605H77.1681V52.9904H75.6841V44.7305Z" fill="white"/>
<path d="M91.9368 45.4994C92.5728 46.0594 92.8555 46.8994 92.8555 48.0194V52.9894H91.4421V51.8694C91.1595 52.2194 90.8061 52.5694 90.3821 52.7794C89.8875 52.9894 89.3928 53.0594 88.7568 53.0594C87.8381 53.0594 87.0608 52.8494 86.4955 52.3594C85.9301 51.9394 85.6475 51.3094 85.6475 50.6094C85.6475 49.9094 85.9301 49.2794 86.4248 48.8594C86.9194 48.4394 87.8381 48.2294 88.9688 48.2294H91.3714V47.9494C91.3714 47.3194 91.1595 46.8294 90.8061 46.4794C90.4528 46.1294 89.8874 45.9894 89.1101 45.9894C88.6154 45.9894 88.1208 46.0594 87.6968 46.1994C87.2021 46.3394 86.8488 46.5494 86.4955 46.8294L85.8595 45.7094C86.2835 45.3594 86.7781 45.0794 87.4141 44.9394C87.9795 44.7294 88.6155 44.6594 89.3221 44.6594C90.4528 44.6594 91.3714 44.9394 91.9368 45.4994ZM90.4528 51.5194C90.8768 51.2394 91.1594 50.8894 91.3714 50.4694V49.3494H89.0395C87.7675 49.3494 87.1314 49.7694 87.1314 50.6094C87.1314 51.0294 87.2728 51.3794 87.6261 51.5894C87.9795 51.7994 88.4035 51.9394 88.9688 51.9394C89.5341 51.9394 90.0288 51.7994 90.4528 51.5194Z" fill="white"/>
<path d="M102.255 44.7305V52.9904H100.912V50.4005H98.5093H98.368L96.5306 52.9904H94.9053L96.9546 50.1904C96.3186 49.9804 95.824 49.7005 95.5413 49.2805C95.188 48.8605 95.0466 48.3005 95.0466 47.6705C95.0466 46.7605 95.4 45.9905 96.036 45.5005C96.672 45.0105 97.5906 44.7305 98.7213 44.7305H102.255ZM97.0253 48.8605C97.3786 49.1405 97.8733 49.2805 98.5799 49.2805H100.912V46.0605H98.6506C97.2373 46.0605 96.4599 46.6205 96.4599 47.6705C96.4599 48.2305 96.6719 48.6505 97.0253 48.8605Z" fill="white"/>
<path d="M114.975 45.4994C115.611 46.0594 115.894 46.8994 115.894 48.0194V52.9894H114.481V51.8694C114.198 52.2194 113.845 52.5694 113.421 52.7794C112.926 52.9894 112.431 53.0594 111.795 53.0594C110.877 53.0594 110.099 52.8494 109.534 52.3594C108.969 51.9394 108.686 51.3094 108.686 50.6094C108.686 49.9094 108.969 49.2794 109.463 48.8594C109.958 48.4394 110.877 48.2294 112.007 48.2294H114.41V47.9494C114.41 47.3194 114.198 46.8294 113.845 46.4794C113.491 46.1294 112.926 45.9894 112.149 45.9894C111.654 45.9894 111.159 46.0594 110.735 46.1994C110.241 46.3394 109.887 46.5494 109.534 46.8294L108.898 45.7094C109.322 45.3594 109.817 45.0794 110.453 44.9394C111.018 44.7294 111.654 44.6594 112.361 44.6594C113.491 44.6594 114.41 44.9394 114.975 45.4994ZM113.491 51.5194C113.915 51.2394 114.198 50.8894 114.41 50.4694V49.3494H112.078C110.806 49.3494 110.17 49.7694 110.17 50.6094C110.17 51.0294 110.311 51.3794 110.665 51.5894C111.018 51.7994 111.442 51.9394 112.007 51.9394C112.573 51.9394 113.067 51.7994 113.491 51.5194Z" fill="white"/>
<path d="M124.868 45.2194C125.504 45.5694 125.999 46.0594 126.352 46.6894C126.706 47.3194 126.918 48.0194 126.918 48.8594C126.918 49.6994 126.706 50.3994 126.352 51.0294C125.999 51.6594 125.504 52.1494 124.868 52.4994C124.232 52.8494 123.526 53.0594 122.678 53.0594C122.112 53.0594 121.547 52.9194 121.052 52.7094C120.558 52.4994 120.134 52.1494 119.78 51.7294V55.9994H118.296V44.7294H119.71V46.0594C120.063 45.6394 120.487 45.2894 120.982 45.0094C121.476 44.7994 122.042 44.6594 122.678 44.6594C123.526 44.6594 124.232 44.8694 124.868 45.2194ZM124.02 51.3794C124.444 51.1694 124.798 50.8194 125.01 50.3294C125.222 49.9094 125.363 49.3494 125.363 48.7894C125.363 48.2294 125.222 47.7394 125.01 47.2494C124.798 46.8294 124.444 46.4794 124.02 46.1994C123.596 45.9894 123.102 45.8494 122.607 45.8494C122.112 45.8494 121.618 45.9894 121.194 46.1994C120.77 46.4094 120.416 46.7594 120.204 47.2494C119.992 47.6694 119.851 48.1594 119.851 48.7894C119.851 49.3494 119.992 49.8394 120.204 50.3294C120.416 50.7494 120.77 51.0994 121.194 51.3794C121.618 51.6594 122.112 51.7294 122.607 51.7294C123.102 51.7294 123.596 51.6594 124.02 51.3794Z" fill="white"/>
<path d="M134.266 52.9905L131.863 49.8405L129.461 52.9905H127.765L131.015 48.7905L127.906 44.8005H129.602L131.863 47.7405L134.125 44.8005H135.75L132.641 48.7905L135.962 52.9905H134.266Z" fill="white"/>
<path d="M137.87 44.7305H139.354V50.7505L144.442 44.7305H145.785V52.9904H144.301V46.9705L139.213 52.9904H137.8V44.7305H137.87Z" fill="white"/>
<path d="M155.254 46.0605H152.216V52.9904H150.732V46.0605H147.693V44.7305H155.254V46.0605Z" fill="white"/>
<path d="M164.23 49.3494H157.517C157.588 50.0494 157.941 50.6794 158.506 51.0994C159.071 51.5194 159.708 51.7294 160.556 51.7294C161.545 51.7294 162.322 51.3794 162.958 50.7494L163.806 51.7294C163.453 52.1494 162.958 52.4994 162.393 52.7094C161.827 52.9194 161.192 53.0594 160.556 53.0594C159.708 53.0594 158.93 52.8494 158.224 52.4994C157.517 52.1494 157.022 51.6594 156.669 51.0294C156.316 50.3994 156.104 49.6294 156.104 48.8594C156.104 48.0894 156.316 47.3194 156.669 46.6894C157.022 46.0594 157.517 45.5694 158.153 45.2194C158.789 44.8694 159.495 44.6594 160.273 44.6594C161.05 44.6594 161.757 44.8694 162.393 45.2194C163.029 45.5694 163.524 46.0594 163.877 46.6894C164.23 47.3194 164.371 48.0894 164.371 48.8594C164.301 48.9994 164.301 49.1394 164.23 49.3494ZM158.365 46.5494C157.87 46.9694 157.588 47.5294 157.517 48.2294H162.817C162.746 47.5294 162.464 46.9694 161.969 46.5494C161.474 46.1294 160.909 45.9194 160.131 45.9194C159.425 45.9194 158.859 46.1294 158.365 46.5494Z" fill="white"/>
<path d="M169.529 49.4904H167.833V52.9904H166.349V44.7305H167.833V48.2305H169.6L172.285 44.7305H173.91L170.73 48.7205L174.122 52.9904H172.356L169.529 49.4904Z" fill="white"/>
<path d="M182.956 46.0605H179.917V52.9904H178.433V46.0605H175.395V44.7305H182.956V46.0605Z" fill="white"/>
<path d="M193.202 44.7305L189.174 53.7605C188.821 54.6005 188.397 55.1604 187.902 55.5104C187.407 55.8604 186.842 56.0005 186.206 56.0005C185.782 56.0005 185.429 55.9304 185.005 55.7904C184.651 55.6504 184.298 55.4404 184.086 55.2304L184.722 54.1105C185.146 54.5305 185.641 54.7404 186.206 54.7404C186.559 54.7404 186.842 54.6705 187.125 54.4605C187.337 54.2505 187.619 53.9704 187.761 53.4804L188.043 52.9204L184.369 44.7305H185.923L188.821 51.3105L191.718 44.7305H193.202Z" fill="white"/>
<path d="M201.33 45.2194C201.966 45.5694 202.46 46.0594 202.814 46.6894C203.167 47.3194 203.379 48.0194 203.379 48.8594C203.379 49.6994 203.167 50.3994 202.814 51.0294C202.46 51.6594 201.966 52.1494 201.33 52.4994C200.694 52.8494 199.987 53.0594 199.139 53.0594C198.574 53.0594 198.008 52.9194 197.514 52.7094C197.019 52.4994 196.595 52.1494 196.242 51.7294V55.9994H194.758V44.7294H196.171V46.0594C196.524 45.6394 196.949 45.2894 197.443 45.0094C197.938 44.7994 198.503 44.6594 199.139 44.6594C199.987 44.6594 200.694 44.8694 201.33 45.2194ZM200.482 51.3794C200.906 51.1694 201.259 50.8194 201.471 50.3294C201.683 49.9094 201.824 49.3494 201.824 48.7894C201.824 48.2294 201.683 47.7394 201.471 47.2494C201.259 46.8294 200.906 46.4794 200.482 46.1994C200.058 45.9894 199.563 45.8494 199.069 45.8494C198.574 45.8494 198.079 45.9894 197.655 46.1994C197.231 46.4094 196.878 46.7594 196.666 47.2494C196.454 47.6694 196.312 48.1594 196.312 48.7894C196.312 49.3494 196.454 49.8394 196.666 50.3294C196.878 50.7494 197.231 51.0994 197.655 51.3794C198.079 51.6594 198.574 51.7294 199.069 51.7294C199.563 51.7294 200.058 51.6594 200.482 51.3794Z" fill="white"/>
<path d="M211.08 45.4994C211.716 46.0594 211.999 46.8994 211.999 48.0194V52.9894H210.586V51.8694C210.303 52.2194 209.95 52.5694 209.526 52.7794C209.031 52.9894 208.536 53.0594 207.9 53.0594C206.982 53.0594 206.204 52.8494 205.639 52.3594C205.074 51.9394 204.791 51.3094 204.791 50.6094C204.791 49.9094 205.074 49.2794 205.568 48.8594C206.063 48.4394 206.982 48.2294 208.112 48.2294H210.515V47.9494C210.515 47.3194 210.303 46.8294 209.95 46.4794C209.596 46.1294 209.031 45.9894 208.254 45.9894C207.759 45.9894 207.264 46.0594 206.84 46.1994C206.346 46.3394 205.992 46.5494 205.639 46.8294L205.003 45.7094C205.427 45.3594 205.922 45.0794 206.558 44.9394C207.123 44.7294 207.759 44.6594 208.466 44.6594C209.596 44.6594 210.444 44.9394 211.08 45.4994ZM209.596 51.5194C210.02 51.2394 210.303 50.8894 210.515 50.4694V49.3494H208.183C206.911 49.3494 206.275 49.7694 206.275 50.6094C206.275 51.0294 206.416 51.3794 206.77 51.5894C207.123 51.7994 207.547 51.9394 208.112 51.9394C208.678 51.9394 209.172 51.7994 209.596 51.5194Z" fill="white"/>
<path d="M131.017 32.9709H133.631L118.367 0.0710449H115.894L100.63 32.9709H103.245L108.191 22.1909H126.07L131.017 32.9709ZM109.181 20.091L117.095 2.73103L125.081 20.091H109.181Z" fill="white"/>
</svg>
