<svg width="31" height="31" viewBox="0 0 31 31" fill="none" xmlns="http://www.w3.org/2000/svg">
<path d="M30.803 14.897C30.526 14.5182 23.9274 5.62085 15.4998 5.62085C7.07225 5.62085 0.473356 14.5182 0.196717 14.8966C-0.0655724 15.2561 -0.0655724 15.7435 0.196717 16.1029C0.473356 16.4818 7.07225 25.3791 15.4998 25.3791C23.9274 25.3791 30.526 16.4817 30.803 16.1032C31.0656 15.7439 31.0656 15.2561 30.803 14.897ZM15.4998 23.3351C9.29203 23.3351 3.91539 17.4298 2.32379 15.4993C3.91333 13.567 9.27871 7.6648 15.4998 7.6648C21.7074 7.6648 27.0836 13.5691 28.6759 15.5007C27.0864 17.4328 21.721 23.3351 15.4998 23.3351Z" fill="white"/>
<path d="M15.5001 9.36792C12.119 9.36792 9.36816 12.1188 9.36816 15.4998C9.36816 18.8809 12.119 21.6317 15.5001 21.6317C18.8811 21.6317 21.6319 18.8809 21.6319 15.4998C21.6319 12.1188 18.8811 9.36792 15.5001 9.36792ZM15.5001 19.5877C13.2459 19.5877 11.4122 17.7539 11.4122 15.4998C11.4122 13.2457 13.246 11.4119 15.5001 11.4119C17.7542 11.4119 19.5879 13.2457 19.5879 15.4998C19.5879 17.7539 17.7542 19.5877 15.5001 19.5877Z" fill="white"/>
</svg>
